<mxfile host="app.diagrams.net" modified="2020-11-17T16:26:22.652Z" agent="5.0 (Macintosh; Intel Mac OS X 10_14_6) AppleWebKit/537.36 (KHTML, like Gecko) Chrome/86.0.4240.198 Safari/537.36" etag="yDYTXXOe5wd5DFb86OKd" version="13.9.9" type="github">
  <diagram name="Main Design" id="822b0af5-4adb-64df-f703-e8dfc1f81529">
    <mxGraphModel dx="1261" dy="691" grid="1" gridSize="10" guides="1" tooltips="1" connect="1" arrows="1" fold="1" page="1" pageScale="1" pageWidth="1169" pageHeight="827" background="#ffffff" math="0" shadow="0">
      <root>
        <mxCell id="0" />
        <mxCell id="1" parent="0" />
        <mxCell id="C8TpaTj0ahZ3OWS8mgbu-74" value="" style="whiteSpace=wrap;html=1;strokeColor=none;fillColor=#0066CC;" vertex="1" parent="1">
          <mxGeometry x="610" y="410" width="550" height="410" as="geometry" />
        </mxCell>
        <mxCell id="C8TpaTj0ahZ3OWS8mgbu-68" value="" style="whiteSpace=wrap;html=1;strokeColor=none;fillColor=#99CCFF;" vertex="1" parent="1">
          <mxGeometry x="60" y="410" width="550" height="410" as="geometry" />
        </mxCell>
        <mxCell id="C8TpaTj0ahZ3OWS8mgbu-66" value="" style="whiteSpace=wrap;html=1;strokeColor=none;fillColor=#E6E6E6;" vertex="1" parent="1">
          <mxGeometry x="60" width="550" height="410" as="geometry" />
        </mxCell>
        <mxCell id="C8TpaTj0ahZ3OWS8mgbu-27" value="" style="group" vertex="1" connectable="0" parent="1">
          <mxGeometry x="230" y="180" width="349.05" height="230.6" as="geometry" />
        </mxCell>
        <mxCell id="C8TpaTj0ahZ3OWS8mgbu-25" value="" style="aspect=fixed;perimeter=ellipsePerimeter;html=1;align=center;shadow=0;dashed=0;spacingTop=3;image;image=img/lib/active_directory/internet_cloud.svg;" vertex="1" parent="C8TpaTj0ahZ3OWS8mgbu-27">
          <mxGeometry width="349.05" height="219.89930976783097" as="geometry" />
        </mxCell>
        <mxCell id="C8TpaTj0ahZ3OWS8mgbu-26" value="&lt;font style=&quot;font-size: 24px&quot;&gt;Public Internet&lt;/font&gt;" style="text;html=1;resizable=0;autosize=1;align=center;verticalAlign=middle;points=[];fillColor=none;strokeColor=none;rounded=0;" vertex="1" parent="C8TpaTj0ahZ3OWS8mgbu-27">
          <mxGeometry x="56.318169838945856" y="99.98791500664015" width="170" height="20" as="geometry" />
        </mxCell>
        <mxCell id="C8TpaTj0ahZ3OWS8mgbu-9" value="MS Teams &lt;br&gt;Direct Routing (TCP)" style="pointerEvents=1;shadow=0;dashed=0;html=1;strokeColor=none;fillColor=#505050;labelPosition=center;verticalLabelPosition=bottom;outlineConnect=0;verticalAlign=top;align=center;shape=mxgraph.office.clouds.office_365;" vertex="1" parent="C8TpaTj0ahZ3OWS8mgbu-27">
          <mxGeometry x="170" y="-70" width="140" height="84.5" as="geometry" />
        </mxCell>
        <mxCell id="C8TpaTj0ahZ3OWS8mgbu-10" value="SIP Endpoint (UDP)" style="aspect=fixed;html=1;points=[];align=center;image;fontSize=12;image=img/lib/mscae/CustomDomain.svg;" vertex="1" parent="C8TpaTj0ahZ3OWS8mgbu-27">
          <mxGeometry x="-53.19999999999999" y="-40" width="109.52" height="92" as="geometry" />
        </mxCell>
        <mxCell id="C8TpaTj0ahZ3OWS8mgbu-83" value="" style="outlineConnect=0;dashed=0;verticalLabelPosition=bottom;verticalAlign=top;align=center;html=1;shape=mxgraph.aws3.router;fillColor=#F58536;gradientColor=none;" vertex="1" parent="C8TpaTj0ahZ3OWS8mgbu-27">
          <mxGeometry x="230" y="140" width="69" height="72" as="geometry" />
        </mxCell>
        <mxCell id="C8TpaTj0ahZ3OWS8mgbu-60" value="" style="whiteSpace=wrap;html=1;fillColor=#FFCCE6;strokeColor=none;" vertex="1" parent="1">
          <mxGeometry x="610" width="550" height="410" as="geometry" />
        </mxCell>
        <mxCell id="C8TpaTj0ahZ3OWS8mgbu-14" value="" style="shape=flexArrow;endArrow=classic;startArrow=classic;html=1;entryX=-0.022;entryY=0.871;entryDx=0;entryDy=0;exitX=0.5;exitY=0.15;exitDx=0;exitDy=0;exitPerimeter=0;fillColor=#CCFFCC;entryPerimeter=0;" edge="1" parent="1" source="C8TpaTj0ahZ3OWS8mgbu-1" target="C8TpaTj0ahZ3OWS8mgbu-12">
          <mxGeometry width="50" height="50" relative="1" as="geometry">
            <mxPoint x="410" y="652" as="sourcePoint" />
            <mxPoint x="460" y="602" as="targetPoint" />
          </mxGeometry>
        </mxCell>
        <mxCell id="C8TpaTj0ahZ3OWS8mgbu-16" value="Mobile SIP Trunk" style="edgeLabel;html=1;align=center;verticalAlign=middle;resizable=0;points=[];" vertex="1" connectable="0" parent="C8TpaTj0ahZ3OWS8mgbu-14">
          <mxGeometry x="-0.1638" relative="1" as="geometry">
            <mxPoint as="offset" />
          </mxGeometry>
        </mxCell>
        <mxCell id="C8TpaTj0ahZ3OWS8mgbu-1" value="&amp;nbsp;Mobile Network" style="fontColor=#0066CC;verticalAlign=top;verticalLabelPosition=bottom;labelPosition=center;align=center;html=1;outlineConnect=0;fillColor=#CCCCCC;strokeColor=#6881B3;gradientColor=none;gradientDirection=north;strokeWidth=2;shape=mxgraph.networks.radio_tower;" vertex="1" parent="1">
          <mxGeometry x="120" y="450" width="55" height="100" as="geometry" />
        </mxCell>
        <mxCell id="C8TpaTj0ahZ3OWS8mgbu-11" value="&lt;font style=&quot;font-size: 18px&quot;&gt;Media Gateway&lt;/font&gt;" style="shadow=0;dashed=0;html=1;strokeColor=none;fillColor=#4495D1;labelPosition=center;verticalLabelPosition=bottom;verticalAlign=top;align=center;outlineConnect=0;shape=mxgraph.veeam.gateway_server;" vertex="1" parent="1">
          <mxGeometry x="775" y="110" width="110" height="90" as="geometry" />
        </mxCell>
        <mxCell id="C8TpaTj0ahZ3OWS8mgbu-12" value="&lt;font style=&quot;font-size: 36px&quot;&gt;SBC HA&lt;/font&gt;" style="rounded=1;whiteSpace=wrap;html=1;strokeWidth=2;fillWeight=4;hachureGap=8;hachureAngle=45;fillColor=#1ba1e2;sketch=1;" vertex="1" parent="1">
          <mxGeometry x="510" y="370" width="200" height="80" as="geometry" />
        </mxCell>
        <mxCell id="C8TpaTj0ahZ3OWS8mgbu-15" value="" style="shape=flexArrow;endArrow=classic;startArrow=classic;html=1;entryX=0.172;entryY=1.004;entryDx=0;entryDy=0;fillColor=#CCFFCC;exitX=0.5;exitY=0;exitDx=0;exitDy=0;exitPerimeter=0;entryPerimeter=0;" edge="1" parent="1" source="C8TpaTj0ahZ3OWS8mgbu-52" target="C8TpaTj0ahZ3OWS8mgbu-12">
          <mxGeometry width="50" height="50" relative="1" as="geometry">
            <mxPoint x="555.2631578947369" y="655" as="sourcePoint" />
            <mxPoint x="580" y="480" as="targetPoint" />
          </mxGeometry>
        </mxCell>
        <mxCell id="C8TpaTj0ahZ3OWS8mgbu-17" value="PSTN SIP Trunk" style="edgeLabel;html=1;align=center;verticalAlign=middle;resizable=0;points=[];" vertex="1" connectable="0" parent="C8TpaTj0ahZ3OWS8mgbu-15">
          <mxGeometry x="-0.1637" y="-4" relative="1" as="geometry">
            <mxPoint as="offset" />
          </mxGeometry>
        </mxCell>
        <mxCell id="C8TpaTj0ahZ3OWS8mgbu-31" value="" style="shape=image;verticalLabelPosition=bottom;labelBackgroundColor=#ffffff;verticalAlign=top;aspect=fixed;imageAspect=0;image=data:image/png,iVBORw0KGgoAAAANSUhEUgAAA+gAAAPoCAYAAABNo9TkAAAABmJLR0QA/wD/AP+gvaeTAACAAElEQVR42uzdfZzVdZn/8ff1PWeAwTsoRRksUZA5QzdiyJzBasPabbdbsdLKtoRqIzmDgoK1W/7E1u4EA2EORlliN1vrVmLbbm1bid3IDEiOtTFnEHUshcQKNOVu5nyv3x8zKOAAc3POnO8539fz8ejxSJg55/O5rs93mOt87iQAAAAAAAAAAAAAAAAAAAAAAAAAAAAAAAAAAAAAAAAAAAAAAAAAAAAAAAAAAAAAAAAAAAAAAAAAAAAAAAAAAAAAAAAAAAAAAAAAAAAAAAAAAAAAAAAAAAAAAAAAAAAAAAAAAAAAAAAAAAAAAAAAAAAAAAAAAAAAAAAAAAAAAAAAAAAAAAAAAAAAAAAAAAAAAAAAAAAAAAAAAAAAAAAAAAAAAAAAAAAAAAAAAAAAAAAAAAAAAAAAAAAAAAAAAAAAAAAAAAAAAAAAAAAAAAAAAAAAAAAAAAAAAAAAAAAAAAAAAAAAAAAAAAAAAAAAAAAAAAAAAAAAAAAAAAAAAAAAAAAAAAAAAAAAAAAAAAAAAAAAAAAAAAAAAAAAAAAAAAAAAAAAAAAAAAAAAAAAAAAAAAAAAAAAAAAAAAAAAAAAAAAAAAAAAAAAAAAAAAAAAAAAAAAAAAAAAAAAAAAAAAAAAAAAAAAAAAAAAAAAAAAAAAAAAAAAAAAAAAAAAAAAAAAAAAAAAAAAAAAAAAAAAAAAAAAAAAAAAAAAAAAAAAAAAAAAAAAAAAAAAAAAAAAAAAAAAAAAAAAAAAAAAAAAAAAAAAAAAAAAAAAAAAAAAAAAAAAAAAAAAAAAAAAAAAAAAAAAAAAAAAAAAAAAAAAAAAAAAAAAAAAAAAAAAAAAAAAAAAAAAAAAAAAAAAAAAAAAAAAAAAAAAAAAAAAAAAAAAAAAAAAAAAAAAAAAAAAAAAAAAAAAAAAAAAAAAAAAAAAAAAAAAAAAAAAAAAAAAAAAAAAAAAAAAAAAAAAAAAAAAAAAAAAAAAAAAAAAAAAAAAAAAAAAAAAAAAAAAAAAAAAAAAAAAAAAAAAAAAAAAAAAAAAAAAAAAAAAAAAAAAAAAAAAAAAAAAAAAAAAAAAAAAAAAAAAAAAAAAAAAAAAAAAAAAAAAAAAAAAAAAAAAAAAAAAAAAAAAAAAAAAAAAAAAAAAAAAAAAAAAAAAAAAAAAAAAAAAAAAAAAAAAAAAAAAAAAAAAAAAAAAAAAAAAAAAAAAAAAAAAAAAAAAAAAAAAAAAAAAAAAAAAAAAAAAAAAAAAAAAAAAAAAAAAAAAAAAAAAAAAAAAAAAAAAAAAAAAAAAAAAAAAAAAAAAAAAAAAAAAAAAAAAAAAAAAAAAAAAAAAAAAAAAAAAAAAAAAAAAAAAAAAAAAAAAAAAAAAAAAAAAAAAAAAAAAAAAAAAAAAAAAAAAAAAAAAAAAAAAAAAAAAAAAAAAAAAAAAAAAAAAAAAAAAAAAAAAAAAAAAAAAAAAAAAAAAAAAAAAAAAAAAAAAAAAAAAAAAAAAAAAAAAAAAAAAAAAAAAAAAAAAAAAAAAAAAAAAAAAAAAAAAAAAAAAAAAAAAAAAAAAAAAAAAAAAAAAAAAAAAAAAAAAAAAAAAAAAAAAAAAAAAAAAAAAAAAAAAAAAAAAAAAAAAAAAAAAAAAAAAAAAAAAAAAAAAAAAAAAAAAAAAAAAAAAAAAAAAAAAAAAAAAAAAAAAAAAAAAAAAAAAAAAAAAAAAAAAAAAAAAAAAAAAAAAAAAAAAAAAAAAAAAAAAAAAAAAAAAAAAAAAAAAAAAAAAAAAAAAAAAAAAAAAAAAAAAAAAAAAAAAAAAAAAAAAAAAAAAAAAAAAAAAAAAAAAAAAAAAAAAAAAAAAAAAAAAAAAAAAAAAAAAAAAAAAAAAAAAAAAAAAAAAAAAAAAAAAAAAAAAAAAAAAAAAAAAAAAAAAAAAAAAAAAAAAAAAAAAAAAAAAAAAAAAAAAAAAAAAAAAAAAAAAAAAAAAAAAAAAAAAAAAAAAAAAAAAAAAAAAAAAAAAAAAAAAAAAAAAAAAAAAAAAAAAAAAAAAAAAAAAAAAAAAAAAAAAAAAAAAAAAAAAAAAAAAAAAAAAAAAAAAAAAAAAAAAAAAAAAAAAAAAAAAAAAAAAAAAAAAAAAAAAAAAAAAAAAAAAAAAAAAAAAAAAAAAAAAAAAAAAAAAAAAAAAAAAAAAAAAAAAAAAAAAAAAAAAAAAAAAAAAAAAAAAAAAAAAAAAAAAAAAAAAAAAAAAAAAAAAAAAAAAAAAAAAAAAAAAAAAAAAAAAAAAAAAAAAAAAAAAAAAAAAAAAAAAAAAAAAAAAAAAAAAAAAAAAAAAAAAAAAAAAAAAAAAAAAAAAAAAAAAAAAAAAAAAAAAAAAAAAAAAAAAAAAAAAAAAAAAAAAAAAAAAAAAAAAAAAAAAAAAAAAAAAAAAAAAAAAAAAAAAAAAAAAAAAAAAAAAAAAAAAAAAAAAAAAAAAAAAAAAAAAAAAAAAAAAAAAAAAAAAAAAAAAAAAAAAAAAAAAAAAAAAAAAAAAAAAAAAAAACgYhkhAAAAAOJt6TYtl3Rlz392SOpwqdVMrYHUcdVY3UOUgOKjQAcAAABibtlOjerarflmmiXpjN6+xl2tMq2Ta10y0AMLxqqDyAGFRYEOAAAA4Dk3bdes0DXLpNcd7esOLtgXjdNdRA4YPAp0AAAAAC9w4w5NCbo0X9Jlx/xi1y6Z1sm0NjFCdy0YrV1EEOg/CnQAAABgiNy4Q1MSeV3orimSRkka3/O/3nT0/E9ydVigDpc6AqnDpEeHaon5su0an3ctVl8K9eetddcaZtaB/qFABwAAAIqsZ4/33WaaUuCXXidXh0ytgam1mIe5DahQd+1y05qk6Wb2rAPHRoEOAAAAFNmynRqV3611Mp1T7PdyV6tJrQq0LkzogWvGqLWQr3/jDk2xLi0/1h71XqyTac3CsbqdEQH0jgIdAAAAGCI3bdcsDzV/KAr15xzYHy6tC5O6p1AF+9JtmilpuY5w6vtRdEhanqjW7exVBw5FgQ4AAAAMsWXbNT6UZrhrhlxThrRglzrkWqdA6wZ7oNtB17Nd1+9vdu2yQMuDEbqZQh3oRoEOAAAAlNiynRoV7tXM0DVT0gyTThrCt18nae1gZtdv3KEpQafWDOiDBgp14DkU6AAAAEDE9CwfnyFppvq/hHwwOlxa60ndPpBifcnjWjyg2fSe95ZpMXvUEWcU6AAAAECELdmuGeaa5dLMIZ5ZH1Cx3nN/+loN8IMFd7Uq0IJFY7WO7CNuKNABAACAMtEzsz6zFMW6pOUJ0119uS5t2U6N6tqjNSZdOOB3dK1JjNQClr0jTijQAQAAgDJzYM/6kJ8I322dTGv6csDcTds1y123Dfiduk+gn72wRmvJOuKAAh0AAAAoYz1Lyme5NGtIZ9VduySt9UC3H205es+96esG2ba1iWrNZjYdlY4CHQAAAKgAz82quxZraA+Wk45xt/my7RqfD7V2ULP9rl0e6CL2pqOSUaADAAAAFWbJds2Qa/6g9oAPlGtNb7PqPfvS15r0usG9vJYvqtECsoxKRIEOAAAAVKhl2zU+3z2jflkJ3r5DpsWH71Vfuk1rCtCedYlqXcSSd1QaCnQAAACgwpW0UHftctOapOnmAyfAF6hI7wiTumgg97UDUUWBDgAAAMREiWfUD1n+XpAinVPeUWEo0AEAAICYKXmhLq1z13IzXVSINphp9tVjtYbMotxRoAMAAAAHWbZTo3xv92njoWuKmUYd6WvdtSuw7iXWXQk9VW7LrZdt1/gu1/KSHCbXrUOuUTpKjPth/sIa3cwIRjmjQAcAAECs3bhDUxJ5XeiuGXJNGXSx2L3sulWuDgvUEYZqTQZ64MD+6yhasl0zLNTyQV2DFgWuNQvHaTajGuWKAh0AAACxtHS7LlP3Mu/xQ/KGPYW7mdZFtWi/abtmhd0z6ieVbWIp0lHGKNABAAAQO0sf120yzYpAUzrkWqdA6xLSPVEo2Jft1Kiu3ZpvpuvKNsEU6ShTFOgAAACInSXbtCuKs8TuapVpnSd1e6n3s9+4Q1OsS8tNel055tilBYtqtJzRjnJCgQ4AAIDYuXGHpgRdWivpjMg20rVL0lqX1i4ap7tK1Ywl2zRf0uJyXPbO6e4ouzFLCAAAABBXN23XLA81P/KHo5W4WO857X1NOc6mu+mCRWO1jtGOckCBDgAAgNjrmVGf79LMMpgp7nBpbSmWwZflbLprVyLQuVE+RR84gAIdAAAAOEjPSeYzS3g3eH90SFqeqNbtC0Zr11C8YTnOprurNTlSFwxVjICBokAHAAAAerFsu8Z3hZol0/zIzxj3LIEPq3TzUM2qL3lci8vqpHdOdkcZoEAHAAAAjqFnVn1Wmcwar5NpzcKxur3Yb1QWh+0dhEPjEPkxSggAAACAvjmwV13SZWXQ3A4zrQlG6OZiLu1etlOjuvZoTVlsCWA/OiKOAh0AAADop2U7Naprt+aXy/J3C7S82IX6km2ab9KyqOfOXa2LxulcRjGiiAIdAAAAGKBlOzUq3KuZ7lqscljm7VqTCHR9sWaQb9yhKdaldVH/0MJd1y8ap8WMYEQNBToAAABQADdt1ywK9e4PLfK7ta4gd8u7drnJCl7ws9QdEUWBDgAAABRQ2RXqI7WgGEvfl27TGhVir353kf6ApCkFLtTXLazRBYxYRAkFOgAAAFAEZVOoF3GPekH3pbvWyPSUpCsL2MSLFtZoLaMVUUGBDgAAABTR0m2aKWm5Ylqo91xRt7wQs9/uavUqzbYuLS7QqfEdC2t0JqMUUUGBDgAAAAyBcppRV6D5hbxHvcCHx3WESV1keY2yUMsHu9edA+MQJQEhAAAAAIrv6rFak6jWFHdd79JTkW2oaZRca5Zu091LtmtGIV7ymjFq9aRmSHq0AC83PujU3ZK0cJymmGn2YOJp0pXLdmoUIxTRePwAAAAADKllOzUqv0eLVdj91MVRwIPkCnrCuyQzzb56rNYcuJfeTNcNrItasKhGyxmZKDUKdAAAAKBElm3X+C7XGpNeF+mG9uxPv3qsrh90n4tUpA8mnu5qXTRO5zIiUWoU6AAAAECJLdmuGeZao+hfzdbhptmLxmrdYF6kmEW6NLCD+RLVGl2M6+aAfo1lQgAAAABEw5LHtVim+QW+77vwCrDsvdhFen+XvbvpgsF+8AAMehwTAgAAACA6ymnZu0yzB3OPeKGLdPVyr3lf40mBjiigQAcAAEBFWbZToyphqfLSbZrp0prIz6ZLaxOmBQvGqmOg+SpYke7aFVbpgmvGqLW/8UyYzhxoH4BCoUAHAABA2em5V/syk6bINUV21GuyOiR1yNVhgTrCUK1epUd7K+KipmxOe++eTV+8sEY3D7ifBSzSE4HO7a3Y7onnckmXHfotumtRjWbyZKHUKNABAABQNnoKrDulwtzPLWmdS61yrUuO1D1RnXkvo0Pk1iVMswcyE13IIt1drcmRuuBI+Vy2U6PCvZoZhhofBOo4eO86UEoU6AAAACgbS7dpjQ6b/SywDrnWubQ2agV7HGbTe/aLtxZoWf/ahTW6iKcG5YQCHQAAAGVjCAr0w61V96zwXVHZn7xku2bItbYs9qZXa3Z/P+To2b6wrkD9u3lhjebz5KBcUKADAACgbBS4eOsXd7WaaU0UivVlOzWqa4/WmHRhpBM2wJPee5b0312IJhx+/RoQZRToAAAAKCs37tCUoFNrCng110Csk2lNYoTuKuUy+CXbNF/S4qjPpru0PFmt6/sTq5u2a5a7bivAmx/x0DggaijQAQAAUJYiU5y61nig20t1h3ZEPrA4dphcrV6l2f05PX/pNi1XAfbcu6t10Tidy1ODqKNABwAAQNk6cBq3uxar9Cecd0hanqjW7UM9q36k68Mian5/DpBbsk1rC7SUn/3oiDwKdAAAAFSEnn3Ls1TqItW1S9LasEo3D/Vd6zdt16zQtbySDpAr6B3p0kX93Q8PDCUKdAAAAFSUZTs1qmu35ptplko/q77OTdcP5fL3clnyLqkjTOqivnyIUbDDAV27EiN1ZlTvuwco0AEAAFCxeg4aW6wIFOoyrVk4VrcPxZuVzSnv6vsp60u3aaakOwvwltyPjug+D4QAAAAAla5n6fcsk15X4qZ0yLR4qAr1JY9rsZmui3yCXGsSI7XgWDPbhTo0Tix1R0RRoAMAACA2lmzXDLkWx6lQL5d96X095X3p42od9PJ9lrojoijQAQAAEDtLtmuGhVoegX3aQ1KoF2wPd7G5dsk0+2iz28u2a3yXq7UAfWGpOyKHAh0AAACxFaE96kUv1At8GnpRmWnx1WN1/THydlsB3oql7ojW2CcEAAAAiLsILQMv6qnvPYfHrY3AEv9jO8a+9ALdj96RqNa5LHVHVFCgAwAAAHr+ejaZ5kegUF+bMC1YMFYdxXjxpdu0RqW+L74P3NWaDHRRb3Ho+bChowC5unlhjebzBCAKKNABAACAgyzbrvH57mXvJS9gzbQ4GKGbizHDWy5Fuly7wipd0NvhcYW6ei1M6ty+3McOFP2ZJwQAAADAC0XmIDnXLgWaX4z96QXcy110R7ovvUBL3dctrNEFjHqUfJwTAgAAAODIlmzTfEmLS73s3V2tCrSg0PvTy6lId2n5ohotOPjPCrXU/UgfAABDiQIdAAAAOIaeInBNAWZqB82l5clqXV/IZe/lVKRLWpuo1uyD+1+g9nNgHEouIAQAAADA0S0YrV2LajTTTRdIerSUbTFpfn63HunZf10QV4/VGjPNLpN0zOzarbuX7dSog9vv0j2DfN3xXbs5LA6lxQw6AAAA0A/LdmpUfo8WS7oyAs1ZlzDNLtRp72W13N3V6lWafeBwtxt3aErQpfsH96LalRipM5lFR6kwgw4AAAD0w4LR2rWwRvOjMJsuaUY+1P03bdd1hXixcppJN9OUoFN337hDUySpp1Af3EF6plH5PVrOKEfJxjUhAAAAAAYmSrPph88oD0ZZ7Ul37ZJp9sIarS3UgXEJ05nFuoMeOBpm0AEAAIABOng23aWnStkWs+4l3oWYTS+rPemmUZLuvGm7Zi0YrV3ywc+A58vnwDxUGGbQAQAAgAKI1EnvBZpNL7PT3SVpfqJatxdiFt1NFxT6SjvgWCjQAQAAgAJask3zTVpW8oZ0L/1evLBGN1dEf/re7zUuPWo26JUE6xbW6AJGNIYSBToAAABQYDfu0JSgU2tkOicCzRn0Se9Lt2mNpMvKKAVrXbqAWXSUG/agAwAAAAV2zRi1JkZqhkt3RaA5B056nzXQF1hYo1ka7AnpQ2vmYItzSTIvzOn4QJ/HHCEAAABA1CzbqVH5vbrQpPHumtHzx7vM1OpSR5jQA4U4rXwoRGyJ+NpEtWYP5J7vZTs1Kr9b64qwKuBRSWdENX/MomMoUaADAAAgUnqWh9/dczr3kXXvsV5nplaT1l01VvdEuU/WpXWFmNUtgI4wqYsG8gFHEYv0tXKdGZEtAYdjLzqGDAU6AAAAImXJNq0dxEno68y0LooFexGL24GaP5AD5Ir2YUPhDncrOGbRMVQo0AEAABApS7dpuaQrC/Rya9V9SNpdgzkkrVCW7dSo/B4tV3QOXBvQkvcl2zXDXHcXvDWuNWGVbo7QAXsHMIuOIUGBDgAAgEhZtl3ju1ythZ6hdVerTOs8qdtLvX89YvvSB7TkvWh9cK1ZOE6zlzyuxVGaTU+YzozChzyobBToAAAAiJwl2zVDrrVF3LPd4dLaUhbrN23XLHfdFqGw93vJexGvX7t5YY3m98zUr1E0DpG7vec0e6BoKNABAAAQSTfu0JSgS2tV/OKsw0xrAun2oZ4hjdjhcVI/l7wXc1+9mWZfPVZrIrMtwLVr4TiN5slEMVGgAwAAILJ6irPFKtye9GNZJ9OaxAjdNZCryAZiCD+I6BN3tXqVZvd1ZUGxtiRIzxfpUveKg9C1vJQfZhzcHqAoY4wQAAAAIOp6ZpqXm/S6IXlD1y5Ja8Mq3TwUS+Ajd8J79xV2sxfWaG1fvnzpNs2UdGcx2hFW6YIDOei5gq9kB8i5dNeiGs3kiUSxUKADAACgbCzZpvmSFg/lLKq7Wi3Q8oVjdXsx3yeC17DJTIuvHqvr+/K1BT59/2AdiWqde/CKhiK+1zElqjV6qFZXIH4o0AEAAFBWlu3UqK49WjOIu9IHxrXLAi0v5l71nr6tHbKVAn3T533pSx9Xa5E+YHjBNWdLt2mmS2uGesk7y9xR1PFFCAAAAFCOSlWgSXruvu5iLX8v4unoA+tuH/el9+ynv79Izbh5YY3mH/wHy7ZrfD7U2iFedcBp7iiagBAAAACgHC2s0dpktca7dNeQv7lpVtCl+5du091LtmtGEfo2Syrukvp+ddc0JejU3T17zY/omjFqdWlBkZpx5eHvv2CsOhIjNWOIYxWl1Q2oMMygAwAAoOyVYm/6Yda56fpFY7WukC8atZn0Hse8L33JNq0ryjJ9167ESJ3Z23L7obxXPmE6c6iv5EM8MIMOAACAsreoRss9qRlyPVCiJsww192FnlGP2kx6j+VLHz96IZw0zXLpqYK/s2lUfk/vp8VfPVZrwqTOlfRosQPQJY3nqUMxUKADAACgIlwzRq09y51vLmEzCl6oR7JIN81auk13LtupUb39dc/s8uJixbhnxUTvY6BaU1y6p6j9Dwu/rQHofrQAAACAClPSA+QOVbCl70VbNj4I7mpNjtQFRzrhvahL3QOde7Rl5sW8is1d1y8aV7QPIBBjzKADAACg4iys0doSL3k/oHtG/XHdtmz74JZFJ6s1MwL9OYSZpuR365Ebd2hKb3/vyd5nugf/xhqVP8Z+84U1mm+m2UV6/yk8ZSgGCnQAAABUpIOWvJd+ebhpVt71yE3bdd2RloUfy4LR2pUYGYkPHQ7v26igs/cl/deMUau7ri/SOx9xqfsBB/alF2E//CgBRUCBDgAAgIq1YLR2LazRrCJe/dUv7lqc361Hlm4f2MnszxXpQ3AQWr+YRpnr7pu2v/B+8ORILS9We82P/YHHNWPUmjRNKegHG17Y0/qBAyjQAQAAUPEW1Wi5pIuKcrJ4f5lGybVm6TbdfaSl4UezYLR2hUnNjERfDuOu25Zs07LD2ysVcan7Hi0/Zsx67kt36a4Cve8unioUZ0gDAAAAMXHjDk0JurRW0hlRaZNLy5PVuv5IB60doy/3RzLQrjULxx26/7uYh9y56YK+HsS3ZJvmmw79EKG/wqTOvWaMWnmiUGjMoAMAACA2DlzDFaV93CbNz+/WI0u3aWZ/+1K0Q9AG36lZL7gr3Yp46nnY94J7UY2WD/K+9EcpzlHEnwcAAABA/CzdpjXSwPaCF9HaRLVm92c2fcnjWmym66IY48OvYStmzM00++qxWtPXr1+2U6O6dmt+f2PXn9l6oN/jmBAAAAAgriJZpLt2yTR7YY3WlnU/DnTnoCJ92XaNz7seKdJbdSys0Zn9/aYbd2iKdWl5X5bfu7Sg5zwDoChY4g4AAIDYitIJ788xjZJ059JturOvV7IlqjU/ctevHeiOaUrXbt29bKdGLRirDhXv2rvxx7p2rTfXjFHrohrNSJjOlHR7r4fvdcf2IopzFP/xBwAAAGLupu2a5X7Ynuko6Mds+rLtGt/lajXppIiGuSNM6qKqvHYVbRbdtSsxUmf298C9F8Ryp0Z17e0+Yd8T2sWecwwVCnQAAABAES7SJcm1JjFSC45VeC7ZrhnmujuyQXbtCqt0QdCl+SrSknx3Xb9oXBEPpAOKiCXuAAAAgKSrx2pNlE9F79p97HvTF43VOnddH9kgm0YFnbpb6vv++v6/ha5kNKNcMYMOAAAAHGTpNs10aU0kl4q7dlmgBcc6rbyYd44Xqh+SDuy3L7j+nugORAUFOgAAAHCYnpO910V2P/cxlrwv26lRXXvUEeH96MU2oBPdgVJjiTsAAABwmGvGqNWkWZFt4DGWvC8YrV0yzYxxCsfftD3C+QOOgAIdAAAA6MXCGq2N7J50dV9fFnTq7qXbei/EF43VOkk3F/yNXbt6vYosYsKQvegoPxToAAAAwBFE+uA46eA703stRhfWFOF+9O73bI16kW6mKcc6VA+IGgp0AAAA4CgiX6R3W7708d6viAurCr/U26TXybU86kV6z3VuQNngkDgAAACUnSWP60KZZpheOEPqUqtJHYGp9aqxuqeA77nYTNdFOS7uak2O1AWHHx5XlLa7diUCnZsPtVamc6Iak0S1Rh/r/nggKijQAQAAUDZu3KEpQZfulDS+r9/jrlaTWhVoXUK6Z8FYdQz0/Zdu0xpJl0U5Ru5q9SrNvmaMWg9p++NqLUIhvTZRrdn53VoX1SLdpQWLarScpwflgAIdAAAAZWHZdo3Ph7p/sHdnu6tVpnWe1O2HF7F9sWSb1pp0YaSD5doVVumCg/vX8+HG/UV4t4sS1VoX1SLdXa2LxulcniCUA/agAwAAoCzkXYsHW5xL3YeHmTQ/6NL9Sx7X/Uu367JlO/v+uslqzSr4wWuFZhp1+Anv14xRq7uuL/h7effe98RIzZB0e+RCYZqybHvfV1wApUSBDgAAgLLgXvjZWTNNkWtNfrceWfq4butLIbdgtHYlAs2M/FVjPSe8H3wfeHKklkt6tNDvk9+jxQtGa9fCGs1SBIv0vHNYHMoDBToAAADKglkRr8wyjZJpVt77VqgvGKsOT2pGOcTNXbcdKNIXjNYut8Kf6i7pygNXmkW0SI/2lgSgBwU6AAAAyoKrcCeyH1UfC/Vrxqi1DK5f647dQUX6orFa59JdhX6PoEvLDvz/CBbp45dsL48PVBBvFOgAAAAoD651Q/p+PYX6km1adqQ96leP1RpFcEl3r+E7qEhPWlGWfM84eDl91Ip086KsHAAKigIdAAAAZSEZaE0p3tek+fndeuSm7b3fI76wpgwOjetxoEhfMFYdxTgwzsNDP8xYWKNZRTmYbkCNY5k7oo8CHQAAAGWh5/7y0szImka5a/GSx3V/b0uly+LQuB4HivTkSC0veJt7Dow7+I8WjdPiSGwFMI06+FR7IIoo0AEAAFA2EnZo8TfUzDTFXHcfvux9wVh1mMpnCbW7bgv3aqZcy4vw8lcevnf/6rFaE5H9+jN5ihBlFOgAAAAoGyWdRT+ISfPzew6dTV9Yo7VRaFtfues2mXYVY+Y/33M3+sF69uvfXOJuv46nCFFmhAAAAADlZNl2jc+7HolKe1xanqzW9QtGa9eynRqV36NWSWeUUUgfLUZ73XTBorEvPNhv6TatkXRZqTqbMJ3Z80EPEDnMoAMAAKCsFOuAs4EyaX7Xbt194w5NKeI948/zgs96F+fDhPD5a9cOVurT3fPefV87EEUU6AAAACg7RTngbBDMNCXo0v1Lt+nKnlnj4i3lNo0yaW0x7jIvdEwOvnbtYKUs0p0CHVF+bggBAAAAytFN2zXLe9nrXHKuNYlA1+e7720v2lJ3N11grlEurTHppIimqSNRrXMXjNau3v5yyTatsyHeF+7SXYtqOCwO0cQMOgAAAMrS1WO1xqV7+vwNrgfcdIGbLnBpQdFmoE2zukLd6V7ce9vNdVuiWuuSpin9isPQGt+1W/OP9JfJas0swR3yo3h6EFXMoAMAAKBs9efAOJcWLKo59FqxZTs1Ktyrme5arELPdnvPrLEVryB01/WLxnVfPbfkcS0203WRS5JrV2KkzjzSLPqynRrVtUcdQ7gKoGNhjc7k6UEUMYMOAACAstWvA+P8hYXygtHadfVYrVlYo/Fmml3Q2VzTqGIW591voSsP3Me+aJwW96wOiMze/ANxONos+oLR2uVJzRjCdo/nyUFUUaADAACgrC0ap8V9Kqzt6IeDXT1WaxaO0xQzzVb31WPRd1jxu2is1iWrNT5qS94P/iChN9eMUaupyKffA2WAAh0AAABlL6zSrGPNwJp04dGKxAOuHqs1iWpNcdf1kZuN7r1fVx783wtGa9eiGs1QMU+S738jjzqLLkkLa7Q2StfnAaVAgQ4AAICyd80YtUrde7GP5lhF4gELRmvXonFa3HMAW6SvM5NpVG/XmS2s0XwzzY7Khwxmum7Z9qMvL+/ZT1/U69cifKAeQIEOAACAyrCoRsuPVUwfa6n14RaMVUfPlVwXRXk2PQwPnUU/4OqxWjPE+7uPKu/H/hAlUa35RT7ZfRdPC6KKAh0AAAAVI1mtWTra/vE+LLXuzcIare3Z2x3J2XQzTblxR+977K8Zo9ZktcaX4DqzF/JjbzNYMFq7EiM1o4jtXceTgqiiQAcAAEDFWDBau8KkZh7ta/o7i37wa0d5Nj3oOvIhaweK3pIv7+7jByTFLNI9SYGO6KJABwAAQEW5Zoxae05i751pVH7Pofeh98fCGq3t2Zserb3MrsuO9tcHHR53eymb2dcPSIpRpLt0T895BUAkUaADAACg4lw9Vmt09FPML1uyXTMG+vo9e9NnROrUcdOopduOvnpAkhbWaJZKecK7aVTXnr5dqVboIt008A9mgKFAgQ4AAICKtLBG84+2Z9xctw1kqfvBFo3TYjddEKEl7zP7GpujrjIossOvhjua54r0Qc78u3TXwhqt5clAlFGgAwAAoGIlqzXrKLOv4/N7jn2q+LEsGqt1PQfIlX7Ju+vCvn7p1WO1poRF+vi+zPYfsGC0di2s0awBr1hwPdBzgCAQaRToAAAAqFh9WCJ95WCWuh/8Pj37u28uaYdNo450mntvSlmku/pfMC8ap8VhUuf2a8m764HESM1YMJrr1RB9FOgAAACoaAtGa1ci0MwjLUO3UHcOdqn7AQeWjpdyyfvRTnPvTamKdNOxr1zrzTVj1LpwnKb0tPnRo32tu65fOE5TKM5RLowQAAAAIA5u3KEp1qV1Jp3Uy1+vXViji4bovYrKXa2Lxunc/n7fTds1y123DWVbzTS750C/wcW6UzNlmiJplEkdLrUmTWsXjFUHIx/lhAIdAAAAsXG0wtmlBYtqCnfK97KdGpXfrXUynTPU/UyYzhxIcTrURbpLd/XcLQ9ALHEHAABAjFwzRq2e1IzelqCbtKwQ+9EPKNTp4wMRamD9GOrl7uZ6HaMSeB4FOgAAAGLlQJGuXvYvW6g7l23X+EK914HTxzXEh8e5D/yDhiEt0vt5qB1Q6SjQAQAAEDvXjFFrolpTXnAauGlUVwEPjTugBPeOD2pmumdf+JB8qJDIU6ADB1CgAwAAIJaOdAWbmaZ07dbdhS7Se4rei4bohPfxg10JsLBG8zUEy/PdKdCBAyjQAQAAEFsHinSX7jr4z800Jb9bywr9fgtrtPZIe+ALLV+AwndhjWa5dE8x2+miQAcOoEAHAABArC0YrV2LajTTXdcf8hemWTdt79+d4n1xtIPqCqlQM9PJas18wVaAgjZ06K+iA6KKAh0AAACQtGicFuuwJegealkxDjG7Zoxak9UaX9TCt0AWjNauRKCZxfpAwYwZdOAACnQAAACgx4El6M8VzqZRQafuLkaRfqQ98IViVrg99AvGqkPGfeVAsVGgAwAAAAe5ZoxaF47TFB04xbynSF+6rfAFajGL9ELv7V40VuuG+CR6IHYo0AEAAIBe9Jxi3r3kvXs2+s5i7EkvWpHuWlfotvacRH97gdsZ+WX+wFChQAcAAACOYGGN1ibt+fvS3XVbMYv0w0+Tj2hMCnqyu5t2MdKAbhToAAAAwFEsGKuOheM05cAp7+66rVh70hfVaKYKNUNdxMK3oCe7F2GmHyhXFOgAAABAHywap8UJ05ku3RN06u5lOwt3CNvBFtZo1guufBsATxav8C3kye5epbWMLqCbEQIAAACgf5Zt13iN0K4Fo4s3S33Tds1y120D+V6XnlpUU5wPEA524w5NsS6tMw3sLnOX7llUoxmMKKAbM+gAAABAPy0Yq45iFudS94FsbrpgQLPUruVDEYdrxqjVk5oh6dGBfL8nNZ/RBDyPAh0AAACIqEVjtS5pmtLPQ9keTY4cmgJd6i7SE9XPH6TXV2aafc0YtZJl4KDnghAAAAAA0bdkm+ZLWnyM5eSPhknNLFXhu+RxLTbTdcf4skclzV9Yw95z4HAU6AAAAECZWLZTo8K9mhm6Zkma8lyx7nrATWuS1VpT7KX3x2zjdo3vCjXLpJkyndPdPD0laV1gWttzlzoAAAAAAAAAAAAAAAAAAAAAAAAAAAAAAAAAAAAAAAAAAAAAAAAAAAAAAAAAAAAAAAAAAAAAAAAAAAAAAAAAAAAAAAAAAAAAAAAAAAAAAAAAAAAAAAAAAAAAAAAAAAAAAAAAAAAAAAAAAAAAAAAAAAAAAAAAAAAAAAAAAAAAAAAAAAAAAAAAAAAAAAAAAAAAAAAAAAAAAAAAAAAAAAAAAAAAAAAAAAAAAAAAAAAAAAAAAAAAAAAAAAAAAAAAAAAAAAAAAAAAAABQJEYIAADlYNLU1ScnLDzNk10nu3SihTpeZsfLdLy5HeemxAu+yW2fKdzj0m6T9rh8t8n2eBA8G8r2JDq1u9M791Rp+O590u6HN815ikgDAIBSoUAHAERCqr5pkrudZaaJZj7BzSaYdLrLTzVZzVC1w11PSXpUpkfl/nt3PapAj7olOjrDfY8+0jL/CbIFAACKgQIdz6l99VdO8M59U4LAJ8j9pTKdZbLT5Xqxy08ys1GSRnd/tf9F0jOSPevSM3I9I/Nn5XrGzJ6V65lQetpcj7vCBzvzw7Y+vGnO74lydEyYln1JImEvD9zPkWmMpNHmGi35aDeNlmu0SaNldpy7Py07kGc9I+lpc3tC8u2ha5ss2C7PbyPPOJaJ6S9OTqqzziyY4K6Jkk8w0wTJziiXPrh8j6RHJeswqcPlDyrU+tyGxvVkGABQaKn6phcHrtPChJ+iUDUK7DRznSbpNJedKvkJMg031wiXjZBpuNxHmNlwScdLkkt7zX2vZHtlvs/d9kq+16S9btoj19OS7TJpp5t2mfsuN9sVhrZL0p+78olH+R1vaFCgx1jtuStrgqrg3W4638zPlWzCELxtm8sfMtlml7Za3tsVVj3YtmnOdjJSPJPqV5wTBIl6c58s6VUuTTGzE4v1fu7aZOYPuazNQtvoCptzGxr/TCZiNu6mZacFgZ9rZufKNcXNzzFZdSX32d3XS9oo+c87E8lfPHTv5TsYCQCAvqg9b1WtEmHKXC9TYJMlr5NsskkjItTMre56WNIjZno4DO2RRGhbN993+f1ksDAiWaCnGrKzJI2PQfw7cs2ZNUP5hpOn3/qiML/vYjO9T6bXRiUQLu0w192h2zpT+LPchsYtPJ6DUzet6W8U6CLJ3inTSyKQ5D+4fINM94Zh+NMtG654gCxVjkn1K85JWOLVofm5gWyqpHOJiuTy35rrR5L+t62l8X/Loc2pdPaNMp1P9o6Q09Cfbd/QuIRISLX1K8+zIHgrkTjCWMmruX1j5kf9fgYr//fgIf/9N5LPz6u/coJ17X6jmb3B3V5tpleW/Zh3tVv3ZNxv3PS7vCf/b2vLRzfz06B/olqgrzPpdZUefJfuyTVnZgzJD4F09l0mzTLTW8rkAd8u6Qd586882NzYwqPax2envumtCvQuk71dz21HiOr49yfl9hOTfz9MVv9X+68+9FcyWD66P+zb8w8K7I2S3myyU4hKH8a9+/+Y9KPQ/a72DfMeiWIbJ01dfXKQ7LzfzE4nY70L5Ve2NzeuiHsc6hqatg7R6rtyfNb/HIT28s0bM3/s7/emGpruNtmMio2NfF2uufGC+I2KxUFdeky9K3yjzP5eUtrUy+GmFZdv7ZVrvUz3yGxd15NdzVu3XrGPnxJHRoFe2gFb3AJ96uqqVKJrjgJda9KYMg5Vm+S37w8St7Fc9IXGT1k2qnrEsI9InpHspWX6MOyW/NtS8OW2lrnNZDWa6s675eVK5t/i0ttM9moiMthh7zlz/SiUfb+9JXN3pHKdXtUgc/bUHzF32mueeGVby0cfjGsMUunsZ830cUbDEcaI6+9zLZkfDyi2FOgVY/z420YMP/XZvw9Ml7rrH4q5vbC8xoDuMfdfuPlPc83z1hGRQ1Ggl3hwFqtAr23Ivi+Qf7qcDl7qox+6dGuuOfO9uD+83cVSmJH00QrrWpu7L8+1NH4p7jmOgknTb6lPePhOly6xeGw9Kgl3f8RdtyQSI76yef2H/xKFNtWlmzIyayI7R8iZtDHXnKmP5c+F+hXnJIJEK6PgiG5sa858bKDfTIFe3mqmrh55QrLrzYH5xXK9RWbH8UgcZTy4/iTpTpP/R1vLmJ9Jl+TjHhMK9FIOyCIU6Gc3NKUTriYzO6/CY7dDrq+5h6uiuky0aM/H9JWvUBgsNdMbK/sB8SdcttSTI1az/H1oTZqWnZYI/GI3u5iivCRj/+tdpmwUtvekGrLfMOl9JOUIqQr9E7kNjZ+JW7/rGrK/FudMHGFQqLmtJTN9cM8dBXo5SqVXvlOy98r05ko/ELV4g8N3uXSHh3bnQM5vqBQU6KUcgwUs0FP1TS9WYDfH8hcp1yp1JW+o9JPgu/eFdt1gpjmxSq/705KW79yz58YnfrPo2diN7yEyYVr2JVWBzzbTB9hTGpnRv8FDW57bkPlWqVpQM3X1yJOSnRtk9jLy0bt8mJ8Sp0Mv6xqy10j6PJnv1TP7OpMvG+xVVBToZfQ8nN90hof6iNxmm2ksj0BBx8mTkn2jyxO3xu2gOQr0kg68whToqfqVf68g+FqZ7zMfbCz3Sr4qsBGfjsry0IKZuroqley6UtInzXRSXHMs9yfc7Npc85NfkRaHsY1DAZ36yiXHjR5Z/S5z+1CUbnXAYUNfvk2hsnv3d67qaF2wa6jff8L07MQq169NOoFs9JYg/11bS+PL49DVs89bdVYi6b+L2JVP0RH6O9o2NN452JehQI+4qaur6qq63iHpw+56gxnXVhd9zLjf56avdnZW/dvDm+Y8Ven9DUh5eatryN5iQfCjOBfnkmTSCJNdFYZ7H0k1rJpXKf1KpVdNravqbDPTklgX55JkdqpJX6prOOX/UulsZS/vL7Kzz1t1Vm1D05dHjxz5J5OtoTiP+NCX1Vhgn64eMezhuobsNadP/8KQLp18aH1mq4V+GZk4UoLsZal0UyyWuScTvobi/AhcqwpRnCPaatOrZqeSXY9K+rakv6U4Hxpmdl4gWzW8qmtXqiH7jdr6lRW9lZcZ9BIazAz65Om3vij0fT8yaRqPbS+xdf0mDPXhLRszG8u1D3X12QUy/5zMhpHRXp+f/8x32fwH75v7MNHom9r6lecFgf2Luy40Mz6gLdux79vkuj5X/aevat3irqF637p0040yW0QGesmJe2imaW3Njb+u1D6m0k0fMbPVZLvXAfC7tq6qc7VpTmdBYs0MevTG/7Ts+UpotUmxWC1THo+d/ywM9ZktGxt/Wml9o0Av5cAaYIHefUiY/Td31PYpyKv+Guxb+Nj6q/aUS5Nf+opVo0ceF37NZG8lgX3y6ac6k5/ZtmnObkJxhJ8Z9U1vNbNrmCmvOG1y++BQXk0Yl3+fB8LdH3km2P+ycvr3pq8mT8ueFia0hW0OvSVeu6XElEJeuUeBHh2p+qZJCnQTv5NFeDy53yezz+aan1xbKVsgmUEpM6mGlTPkwa8ozvvINPeEcNjGCdOzE8uhuWc3NKVHjgx/wz8E/fKJE5Ndv51Uv+IcQvG88VOWjUo1NF1V19C01QL7T4rzilTnCn+VasiurH31V4akcOoMgkvk/gShfyEzO/P4cNiSSuxbmPAvU5z3zs3nFrI4R3TUpZtutMDa+Z0s2szsPJO+W5c+JVebXjW7EvpEgV5GatPZd5kHP+YfyX4/uS+rcv061ZB9W5SbmapfeWlS+iUfvgwkxTorCBLNqYbsP8U9FqnpK19R29D05eoRw3aa7CZOZK/0sW+BSY1B194tdemmvyv2+z107+U73HURkT9iPjK19StfX0l9SqVXvpMCpXcu/7dcc+PtRKKyTJq6MpVqaPoNW3rKjOnswPyrdQ1NW1MN2VnS4rKtcynQy0RtQ/Z9gek/ZKoiGgN5ZnWCSd9PpbORnN2orW/6nAXBNyVLkq0B53iESV9KNWS/UTN19ci49b9uWtPfpNJNPzYPfhPIPsyIiN0DcJpLP0o1ZBcX+5eS3IbG9XJfQNCPkAoLvjFUKxqKbWJ6xYkmy5LVXrgefMb287O2wtQ2NF0RVAX3m+wVRKNc2QSTbks1vPhvyrUHFOhloK5+1VtM4hPaQjyypoV16ezaiRNXDI9Ce06f/oXqunTTfwWBfYzsFCjH0vtOTHbe89JXrBodi58P6aa/q0s33aOE3WNmfxeHPuMIY797Nv26VMMpP5s0dfXJxXyvtpbG5e76DlHvLQ8aa117myqhL1UKlsnsVLJ6GPf9nUrMrMTzBuJq4rkrTqlryP4kkN3MTQUoNQr0iEs1rJyhwH9gUoJoFIjpwqoXJ9ZNnn7ri0rZjMnTb33RCT78VzJ7M0kpcIrNzjvuuLBszh4YiNp004WpdNNGmf1YZmX7KTGKMP6l1wVVXa2TpzW9rJjvs3PP7lkuzxHxXnJg+kBtw8q3l3MfatPZC2T2QbLZa4YXbG356GbiUBlS9U3Tk8OD30l6A9FAFFCgR9jZDdk6ebCWSBSBqcF974ZUwy3jS/H2Z01dfVLoe/9X0rkko2hJnlAVenOl3ZVZ27Dy1XXp7PrAbK2ZVfQ9oBjE6JfGeaBfTpqWLdpVnE/8ZtGzXZ3hW7tPscYLc2C3jp+ybFQ5tn38+NtGmOmrZLEX7v/d1pJZRSAqQ11D9hoF9guTnUI0EBUU6BE14fxbxiSk/zXTSUSjWGyCPP+LuvObzhjKdz31lUuOG1bV+TOTvYocFDnDZi8OguDuyefdUvYfhNTWrzyve/ld8EuZGsgu+vAAjAoSfk+qYeWMYr3F1k1XPOQKP0Cwewm/7JTq4cPWlGPbR5y6+waTxpPFQ7n7Y/u6qi4lEuWvZurqkal0012SPs8qVUQNBXoUzVicHBaGPzJpHMEoLjM73fP65VAV6ae+cslxL6qu/inF+ZA6PkyEZVukT0yvOL2uIXtHEAQbxfI79JPJqk3B3cW8xSLXMu+7Lv8C0e41ARfWNmTfV05NTqVXTTXT1SSvt3QGFz+8ac5TRKK81aW/ePZJya5WMyvrbSioXBToEZTae/KtYunzkBm6In1xMHrkyP+SWZqoD3WOdVKYCO+uO++Wl5dLm2umrh5Zl27616QlHpR0MVnEoJ4B9+9MmtZUtA94cs1jrnH39US619ivmjwte1p5tHZxYAo5lLYX7vrntpa5zUSivKUabhnv1vUrmc4mGogqCvSIqU03fdBklxGJoWVmpyvUzyeeu6Joe5DqGk7JmvQ6ol2qHOskT4R319avPDPqbZ0wPTvxpGTXQzL7JKfJokAPwLBEwn5SN62pSAcKXpK3rqp3urSDYB8eejvRE/pGObQ1lR7zMZm9rBzaOsR+mmvJfI4wlLfJ07KnmYc/Z785oo4CPULqpq4eG0griESp2Eurhgc/0IzFBb+LvC7dNF/SR4lxiTNsOjmw4H+ifkdxlYeny1QmM24oK4H+u1inu7dtmrM9dL2TIPfqDbX1qyL9b0Bd+otnm/lnSNVhXH/s3Jd/L4Eoby99xarRHujnMr2EaCDqKNCjpKrr6zI7jkCUktWn9pzylUK+Yl266c0yW0Zso5JinW1de75LIBDP8W/HecLWnvrKJUX5t2ZLS+aX7lpEoHsJfeDLzj5v1VnRbWHX18nSodzloYfv23r/FU8SjfJ16iuXHDdypK9jWTvKBQV6RKQasv8kDoCKBDN9oK4+u6AQr3X2eavOculbRDVqOba/SzVkVxIJxNTE0SNHFu3nUq4ls9Sl/yTMhzJpRCLhd0SxbbX1qz7K+Si9Jc0/275h3s8IRHkbPbL6B2Z6JZFAuaBAj4AJ07IvMYkTcKP1ZHxhUjr7msG+TCLhd5rZiQQ0ekxqTDVk30EkENPx/7ZUOlu0k7qDp3Wpu28h0ofF3TS1riF7TZTaNGn6LeMCC5eSnUO5+/pcc+MniER5SzU0fdpkM4gEygkFegRUBf5lSccTiYg9HKavD2YZaCqdvZ1PbCPO/bYJ07LsR0MsmfwzE6ZnJxbjtTdvzjwTdvmFcu0m0odx/9fa81bVRqU5gee/yPa6F+RoVxgkuD2jzE2a1vQGuf0zkUC5oUAvsdp09gIz+3siET0mjR9dXT2glQ21Ddn3mekDRDHiOTY7cVigSC45BYbgARg2LPSinS6+ZdO8nCvk52AvcbeE3yHdkSh1U2obmi4x2VtJyqHyFly6Zf3ljxOJ8lU3dfXYILDvmsmIBsoNBXrpE3A9UYguM/tIKp19Y3++Z9LU1ScHEvubyybJakg1ZK8jEIjn+Ld0qj7bWKyXz7XM+65LTQT68LDrlXXpHYtL2YaJ6RUnmmsV2TiUu6/Y0jz3h0SijM1YnPSqzh+Y6SSCgXJEgV5KrikyvZZARJz5bWdNXd3nH/JBVefNkkYTuDJKsbQ4SktOgSEd/4E+NX78bSOK9fq55lPmu2sTkT6US/9S19D0qlK9f9KCFWb2YjJxSFJac11VCwlEeavbc8o/m+xVRALligK9hPhkr0zyJKsZnuzq00qHSQ2r3mSyS4la+QkS/mWigJgaPfzU3XOK9/KX5H1/+HZ3/zOhfp6ZBZLumDhxxfChfu9J9atea7LLyMJBXLuV8JnaNKeTYJSvydOyp0n6OJFAOaNAB/rATY0Tp66YcLSvmTz5jmEJ99VEq0yZXltXn/0QgUAsh79pkeRF26vZfv+8bQqCd7p7SLQPifyEqhcHnxvKdxw//rYRQeBfI/aHp0IfbLu38VECUd7ChN8k00gigXJGgQ70gUmJqmSw4mhfE56w4xMycSJ4GXPzz09Mr+BaPMSOSeNSDauKelhYbv3ceyTj2qrDuOzKVH3T9KF6vxGn7f6MSeOJ/EE5cL+trTnz70SivE2afks9qxhRCSjQgb4ye/ORDow7+7xVZ5nZ/yNI5Z5ie3HSEouJBGI5/l3vK/Z75Foyn3PpP4n2QXE3mQX6ds3U1UWf9Tt7WnaKXPOJ+kFcD3b9ObycQJS/RBiyihEVgQId6AczLe/tzxOJ8EaiUyE5lhYcazsDUInc/O2TJ2ePL/b77Ny9+72Ss5T4EPbSk6q6VhT3Pe5IJAP/BtdOHTTmpb2dSszcuvWKfUSjvNXWr7pYpilEApWAAh3on7q6hqYPH/wHZzc0pc3snYSmclQlE0uJAuLGZNV+ghf9TuwnfrPoWXUluHv7hT40qWHVm4r14rUNT35cZi8jzAdxv3Jry0c3E4jyF5hfRRRQMeOZEAD947LFB/93QrqJqFQY08yh3BMKRMjfDcWbtN13+f+F0j8S7kMFCm8fP2XZqEK/7oTp2YmBO9uwDuF35loav0Qcyt+k+hXnyNRAJFApkoQA6B+TxtWlm+a3tTQuT01f9TpzfzVRqcRE21WSLiYQiNe4198O1Vu1N2e+WdeQfY2kjxL4A+G3U6qHD1sjaWYhX3dY6N+Q2TAi3M2ljuBp+wCRqAyBJT5GFA4Z33+V+3aT/iizJ1x6QtJz11y6KzDz4+R2nMlHutlxkkaa63iZv0SyM4hiaVGgAwPgpn859ZVLvqww/GcZ2/kqkZneVXvuypr2++dtIxpFe5J+77LNcv3OzJ8Mw+ApU/5pyZ4OFTwldT1tsqcTieqnNq//8F8O/+4z08tPHe7JszywswL5me52tswnyK3WTCcT3wGN/JdOmJ6d+ND6zNaheLe25szlqXTTeWZ2HrE/kAJdWNvQdEl7c+MdhXi52oamyyVLE9jnhRa8O7f58meIRPmrPXdljZneG9f+u7RDUotCb3a3XyeSwze09fLvZX9NTK84PenBSyywl7rrJSZ/pcymS5rIqCs+CnRgAEx2yuiR1VmT/T3RqOA8D7M5kq4jEgXgelBSi+TN+SCx8alnn/ndE79Z9OxgXvKRlvlPqHtmYP3hfzfh/FvGVOW7XivZ30h6nZmdQxL6Zljo0yVtHar361J4UZWCByR7EdHvFrhWT56W/fnmjZk/DuZ1JqZXnB7IOMT0IO5auKX58g1EojLYcMvEsNv/4fL/6jT7VbE+TN3acsVjkh7TYf++puqbXqzAzpe8QdL5ktImq2YkFhYFOjBAJruMKFR8jj8iCvSBanP3n8nsfwIb/qvNzYP/RL8/Hrr38h2SvtvzP9Wet6rWEuGlkt5vZmeSnqOO/KmSvj5U77a15YrH6hpWvVvy/yX2B1Jgozyhr0p682BeJqnEFyUdXxlBKYgf5loynBtTWQ9LTO4999+7dHNgI9ZsXj+0/54eLLeh8c/qvirzuesyz25oSielGe66wKTXqHvJPAaBAh0AjsR02qR09jVbWjK/JBjH4L7LZT9xt5/mresHPZ++R0b7fXPb1f1hy3Wp+pWXKgj+2aSXk7heTR3qN2xrnvuTuoamayX7V8L/nDfVNTR9uK258daBfHOqPvteM72FMHZz+baws4p95xVk8rSml7k0vsIH7m65Ptm2oXFZVJv4YHNji6QWSZ+XpJ5Ddi+wwF4v6Q2M1P6jQK/kZ9r9PpNtcFOrK9wcdCWf6kx07hr218SuzZszz5yZXn5qVVdidBAEL5LpDJmfLVOt3F5uplcSwfLJs2RPyLSrp0j6i5mOl/xFco2W2clyrzWzFxOt/gtM75BEgd7r4FOzzP9LHvykrSXTXC7Nzm2Y92+S/i3VkP0n6/6FYjTJPCSx55biXduaG2+oSzdNl9mboxaR0qXCbq47v+l/2+5t7Ne98S99xarRCsKbxZXnz7Pg0i2b5vyJQFSOMAjebvLK7Z/81kRo1w52q8tQy21oXK/upfGfmTR19clW1Xmxud5v3XvY0QcU6BXHfx9KNyWetq+2bW486gEoB+3flKR7D/67iekVJ1Z58rUKwrfI9QGWq0Qow+7fN9N/Svp1W3Pjr/v6fWdNXX1SVdX+l5sHDSa9VuavZc9nn1wiiftVD4w/+ZPmWrM/sC891JzZWs59yTVnvjxp6uo7g2TnV8zs7WS3h9lxdVNXj23bNGf7UL/1nn2d7xsxvOrXbEM4kAuNVN6+Iem1/fm2kSN9uclOIYDdXLo+t37uPUSi0h6P8MJK/RDKXQvbWxrLfjtGz4dit0i6pe78pjPC0P4xcL9UZpMZwUcb2xGUasiuM+l1pKcfD7L81y59vlCnvh5sYnrFiUklPmLS1TKdRrRLkt89cn21M7DlhTwQJJVe+U5TcKWsf7/8xU0+r/otGzMbh+r9Ug0rZ5iCuyM1Bt3/J/Tgi1s2zF1biTmua8jeIOkTjPZuocLXtDfP+1Up3nvyebec68nw11GLSYkfwAVtLY3L+zaWV/0t+/kPjp1+0daS+ZtyanKqoeluk82o3JT4ulxz4wWDeY0z08tPHWFVZTWz3Of4hP6J3IbGz1TyY1nX0PQquX1Apg+oSKvYXOEFueZ568oxPkElJz8O3LVJob0119w4tRjFuSRtbbni6VxLZumeffvr3PU1oj6U+fWnQ9e/Bjbi9FxLY2OhT+vMtcz7bltL5m/kNt3dtxDx3gXmfxfjMfilLmlyrqXxHyq1OJektubMJ0P3DzHae8a821mleu/N911+v0uzycJBz6HZZydNXZk61tedPv0L1VJ4axxi0qe4uZ4K94fvIRKVZ7gl/6FCx+x3Kr04l6S25sZft7Vk5rc1Z17koS519/9hVD+PAr2chboq15I5r23D3P8airfraF2wK9eSucxDf5u7P00Cisz9Bk9Wn97ekvl/xT6xs61lbnOupbHWXZ8j8L0w+9tYDT1ph7tf56GfnGtpnPNgc6YtDv1ub2n8qsuvZsBLko0v5bvnmjNr3PVl8tCTDWlEUBUc8wPyE8Jhn5HsDCLWLTR7b/v987YRiQp8JtzOrcR+dSm/IG65zG3IfCvX0vgPnZ5/ieTXSv77uI9vCvQy1DOr+vq2DZmSnOiY29D4A1PyPHc9TDaKkuBdoev1bS2N17b/6kN/HdLctmT+2V1/L+kZEvE8M3/txIkrhlf+0PMtkv9Trjlzaq6l8VM916nESq658Qvuno37mHf5qSXPRUvmIy5nqXsPk6bVpbPXHunvz25oSstsPpF6bgx/YUvz3B8SiYrN7ysqsFs/jNoNKENpa8sVj7U1N97Q1tx4RvdkoCK11W8oUaCXG9cf5JrW3pIp6aBta/nog3Kvd9cmklLI/PrvQvdXlTK/uZbMj93C8909tv9IvJAlq05OVuw+fZf/2kN/W66lsXagVzpVkr1PHLdQUixWDRxxxJsicsBY4p3ueiruY/L5xOhTZ0/LTuntr5KurxKgbu7alGtuZDVMRT8KelXFjdtQd5HZbrkNjT/ItWReb13Bq9z1Lcm74tR/CvRyenDlOQtVn9vQGIm9wrkNjX8OguFvZO9ygfLrvr5T4fntG+Y9UvLcrp/32y6F013O0sDn8hNWXoHu+qPLZ+WaG6fmNjT+gCx36+iYvbcrr0vjHYVo3PCQa768Q903KaBHMqF/O/zPUg3Z6zgV+TnPuIcXE4bKVTd19ViZjaq4jgVhO9k91Ob7Lr8/15K5tNPDM11a5tJf49BvCvQy4e4P7N3bOT1qdyFuXv/hv/h+v0DyR6PUrjLM8J25lsbzt7ZcEZm9/VtbrngsyOuNknaSH0lWOfvdum8F8Bue6kpOyDU33k5yX+jBjZlWuW6ObQBcJ0elKbmWzI/d/VOMyufU1aWbbjzwHxOmZyea/JOEpVs+tPdH4YNuFFGy8+WV2C3LW0hye7e15YrHcs2Zq7o8f7rk11Z6oU6BXgbc/WlL6MKO1gW7oti+9vvnbQtD/yCZGrCftjU3viOKDdu8sfF3+bwzE9GtIpbTuft3O/NW29bSeO22TXN2k9YjC5MjrnX32O3DlySZR2IG/YBcS+N17voxo/JAfmxRalr2fEmqCv1rkiUJSvetE5V82wS6harM1SJhYAmye3RbW654uq258Ya9e/e/VO5LXNpbif2kQI84dw/DUO9ou7cx0jPU7Rvm/cylb5Kx/iZYf3j2WYt0AbxlY+NP5fpG3FNl0rgJ598ypnzHmv/O83p1rqXxXQ9tzPyBh+/Yeg5p/FIsO+86MWpN2rtv/7tdepyR2c0S/q1UOrvQzKYTDUnuv9v7xHFXEogYjH0rzr3ZERjEkfu5G1UdrQt2tbU0XtMZBGe4fKXL91VS/yjQo87sU1s2Nv60HJoadibny30XSesbl++x0N/0+9/OjfwS8s79+avIrZQIfWoZNvsZuTJtLY0vz23M3MuT1z/5fBDPQ/MiuL+zo3XBLrldyKh8LkkvNdMS4tCty+zijo7ZFTmbhsNGvvvISuxXIJ1OdvvnoXsv35FrbryiM29nu3vFfKBOgR5pviHXnLm+XFq7ZdOcP7nsBvLW1/Rq/uaNjb8rh6Zuvf+KJ93t2rinLFF+17r8UJ3JSW0tmVU8cAPz4H1zH3bpHiIRDbmWuZvcfQ6RwCFCffjB5kysb16IFbMTKrFbbnYeyR2YhzZm/pBraZwThuFZLq0p9/5QoEf1IZX2hqG/p9zanat+8mau5+pDfl3/lWtpLKtP+nIjn/yiu8f74B332vJopv85dHt/W3PmzW2b5mzniRscc18bx35PTK+I5HLLXEvjl9h2g+f5nW0bMl8hDnFKuY6v0H69leQOTvuGeY/kmjOzOzvzE/d3Dnu4XPtBgR5R5vpMWZ5Cum5xl7l9ggwembv+tHu3vb8ccytyOzHy40v6UWciMbm9ZS4FTIGE7rG8mzavsDqqbdvzxMh/ctdvGJ3x5q6Hw0T1ZUQidipyBt1MJ9c2ZPkdugC2brrioYc3zfl9ubafAj2KXH/8a7Bvabk2v21D5msuf5JE9s6k68ph33lvchsy34r5vffRnkEPdVWuOfOmh+69fAdPWuG0b5j3iLvK9pP4gRpuwyNboHd0zN7rHs5011OM0PgK8sG7eg5zRJxYhc6gSwqkG1IN2beR5HijQI8gN/2/x9Zftaec+2Be/vs/imRrW8uTXyzr3JrFdymh2am1r/5K5D65d6lD8qltGzLLeMSKlXp/IHadDvPDoty89g3zHjFxDWRsuS/YfN/l9xMIVKA7UvVN3M4QYxTokeO/zzVnvlzuvejsCleTy16yK10lLQ7LOrf78rfFOoedz54Vqfa4f98TI17Z1tz4a56wYj67FrsCvcuSkb9bu62l8X/lzuGksXse/QdtLY3LiURM8++Veff1ASaNUGA/q61vWiQtplaLIZIeMR5aRVyZsnXTFQ+5xJVOB+dW/ttcc+Y/yz6391/xpLt/N655NE+MjVBzPp1rabyQJZ5D8QCH/xe3Lge+v6oc2tnW0nitpLK4jhQFeBTdH9u7t7P8znFBIUdBxV+nZ9KIILAb69In3ztx6ooJ5DxeKNCjZefeHSMr5s5dl/6blB4ktM9WTm6DtbHNY2AlL9Bdvk+hv6OtOfNJHqwhenyD5B9i12lPRHqJ+8HMhl/i0uOM1Aofku6hm7+no3XBLqIRZ/ZsfLpq6aqqxNa6huwNUdxih+KgQI8S91s7OmZXzKeCia6AAv1AaqWO3IbMtyqlP+bhD+OaS5OfWtqx5E8GXYnpbRsa7+TJGlKxK/4CqSxm0CVp8/oP/yW04B0M08pmpuvam+f9ikjEXhwPIv5EkN/TkUpnr66ZunokQ6CyUaBHSrLs954fbPN9l9/Pae49Qq+o3OY2NP5Z7i3xTKaXcgZ9q5So52Ckobdl/eXxm51NWtkU6D052iBXhtFamdx1d1tzI+cNQO7+RDx7bi8y09ITk53bU+ns0snTsqcxGioTBXpUuLe0tXz0wUrrlrl+RHKlrs6wogp0Kb5bGExWkhl0l/+2c1/+/Fzz5R08USVTltcjDnzQ5a3cmtzWklnlru8wVCtsKLr+tE+d7yUSkCQLFOurRM3sRDNdHSa8o7ah6csTpmcnMioqCwV6RISyiln+fEi/TOvjnlt3//7W+6+ovJUE5j+PZT6lMUP/nv6r4Gk7vyLHUXnlnju3y8Azwb4PSGojEhXy3LncPXz3Iy3zYzprisNZXo8QBclkwwPZh4e5HqxraPpebf3K84hKZaBAj0oiEr62EvtlHmyIe27NrSJPPN/7x+Ob3b2sr4wboBOH8s1cvi54eszrN2/OPBP3Z6nk3CnQy8Bj66/a09mZf5sknpkKYKYl7Rvm/YxI4IDOrpAP4F74pFwUBMHGunT253X1q95CPMobBXo0tLXd2/hoJXYs13L5r12+J66JdSlvz+h7ldi3ngMNfxu3nNrQFug/yTU3XrB58yX74/oMRSv39jRRKA9bN13xUD40ruIqd+4tbc2ZjxEIHPJ8d1/3+mci0QvTaxX4D1LppvZUOnv15Om3voiglB8K9AhwVfI+bXPJ4nuglfs9lT3zac0xzOqQXHPi8nX29Cl8Ch6lx9kUxxUjZWvLhrlrJd1IJMr0eZP+mg8S7yQSOIIHCMGRmdkkMy113/fnVDr7H3XTmv6GqJQPCvQIcPd7KryLW2L8iP2ksseutcYwqUWfQbfOYe17/3jcm5g5BwanrTnzMXfdTSTKTxjaB2J5ewL6xF0biULfmOldStg9qXQ2l2poumr8lGWjiEq0JQlBFLJQXdl7q1ztKruzgAsjDL2iC3QL8rnYfc5nKvr9o22b5myP5xMTRXckUvU73qRAcyS9hniUnyAY/i4P926WleYGBgyAa1XPCgig9+daiulVrwNnplrJbqoeMeymVLrp2xbqlraNjbE88DfqKNBLzh9t/9WH/lrZfQwfjOtijS0bMxX9Ca/v0xYbHr+8njV19UkPb5rDgWGVO7It1dD0OvPgYmnHOynsytvm9R/+S1161Uwp/IVk/N4T+cfPf9fWVTWfQOBo8onEhkQsz6ktDDN7jxJ6T106+6DMv7LXu9ZwU0J0sMS9xFxW8SdRhu5bY5reit97337/vG0u3xe3xI4IuqpjOqYrmFuqYeWMunQ2W5fObjcFd8s0l+K8MrS1zG0O3RYSiag/htq9P7CZ2jSnk2DgaLasv/xxuf+OSAyS6WzJPjfCko/VNTR9ry7d9GZpMfVhifFJculVfoFueiQRw8S6x+aE899JelWccrs3TA6L4ZCuxKf0oJnyVe+QgtO6t+PEdE9OhWtvydycSmdfY6Z3EY2oPpE+96H1jXH9UB/9ZbZW0ssIREGCmZR0kUwX1aVP+UNo2dVdQfDlh+69fAexGXp8QlL6B+KRSu/h1pYrno7jVWtm/mAs+un2h9jldlgXBXqZqpm6euSk+lUzU+mmr6Yask88P1Ou04hO5Xsm2PcBxeCD8XLk7t/ONTfeTiTQ9zFjdxKFIjC9JJBuGBaGT9Q1NP17bcPKVxOUocUMeqmfgTB8LB7PunZIOiNWyXVV5N32L+ymP2Exm3Ec1hmMiFWHy9yZ6eWnDlfyQsneLut6g0kjmCWPp8fWX7Vn4tQVb6uqSrRKOp6IRITrwWeC/R8kEOiPXMvcTXUN2a2SJhKNYrFLAtkldemm38ntK5YYfvvm9R/+C3EpLmbQSyxv9mQsOur6Y9xy60Hw+1h01Gxb7B7cZJ4Z9IibVL/inLp09tpUumnjcFVtN7PVZnpLd3GOONu66YqHPPT3EomIcN/fqcTMx9ZfFbuVdhi80PUtojAEzF6mQF9w3/fnVEP2u6l09o0EpXiYQS+xROix+JDEzXbEbr6qy2NxyI2H9oQFHqvUeqgYnl0ffXXppr+T7C1ufrHJaiQpbqs70De5DY0/SDU0fcFkVxGNkrtqa8tHNxMGDES+K397UJW4lkgMHZPeIdM7UummB0z6XFvLn+6QFnOkfgFRoJeYJ4NY/PbYs8Q9VkKzWJyN54rf6gglAmbQI2Dy5OzxfqLe4q4LJb1ZppMkinL0Ta55zDWp9I7pZjadaJSI+3+3tTRmCQQGauumKx6qS2d/IdNricbQMrNzJH0rlT7l01LT53MtjV8iKoVBgV5iHpcZdPdnzeL1S3MQ5ONyeP2f4/fg5qkAS2Ty9FtflPe97za3mW56oyTF7EcLCuaSvHWtfqdXdbWaNIZ4DDX//Z59ne8jDhj0SDItN1Ggl4qZzpJsdSqd/bTJv2ihZTdvzMRv8qaA2INeah7G5VfLZ0l2pep6mhigmM6auvqkuvrsh1Lpph+7730ikK2ynuIcGIy2TXO2m9uFkncRjaHkXfm8vaujdcEuYoHByjVnvid5LA7mjTIznSyzT3pC21MNTWsmTl0xgagMDAV6ibnHY+7HzSjQK5TJKNBRcC99xarRtemmD6Yasj8cXtW1S4FuNbO/67mrFSiYtpa5zS59jEgMqU9u2ZjZSBhQKB7aZ4lCdJjssqqqIJdKZ794Znr5qUSkfyjQSyyRiMce9MCdAr1CUaCjUCZNXX1ybf2qj6bSTT8+7rhwR2D2FZP+gcig2HLNjV9w6T+JxJD4aVtz4+cJAwr6DG/IrGYWPWosaaY5w62qI5XOfnby9FtfREz6hpmIUovJEnc3e5ZtopUptyHzl7qGVQQCA1Jbv/JMs+CdJl0o63pN95/y0wJDL3hal4Yn+CYzm0Q0isT1x879ea64Q7HcIOnLhCFaTBoh08dD35dJNTStDGzETdylfnTMoJeYx+R4I3PfS7YrOLsS+UWfpeqbptc1ZD9fl276vyAIHjbTEpleQ2RQSps3Z57pUvIiuXYTjeLIh/6PW++/4kkigWJoa2681d0fIBLRZNIJJvsXD/f+vrYh+wkicmTMoJdafA6Ji8Wd4HFl0h5JI4gEjuTshqZ0QrrE3C6W6SXdA4eZckTL1paPbk6lV37AFHyHaBSWyz+zZWPjT4kEiiv4kLtvNO7bjC6z4wLphlQ6+/7Q7Z+2bJj7C4Jy2CgmBKUVBol4XLNmtp9sV3B+5XuIAg43YXp2Yird9Jm6hqZHk7Jmk131XHEORFSuZd533X0FkSgg1y9zzY3MmGEInt+5m0y6hUhEn5lqE4H/vC6d/fbE9IrTicjzKNBLLMEMOipAzww6oMnTb31RKt30kbqGppZhrgfN7J8leymRQTnJtTRe6dK9RKIA3Hd1in3nGDpPdSUXcWBcGTG9O2nBltp09lM1U1ePJCAU6KXn8TjF3fMU6BWdX7FnM86ev6c8+z/ue58ws9WS1RMZlDPfF17s7n8mEoOTt+DSrS1XPEYkMFS2bZqz2/N2qbucaJQHk1UHpmtPqurcnKpvmh73eFCgl5grJjPoFrLEvZLTywx6/MxYnKxNN11Y19D0veHJzh3d95TrjdxTjkrRfv+8bQqCd7p7SDQGxt1XbGme+0MigaGW25i51+RLiUS5sTMssHtr65s+F+coUKBjaB63QPyCU8mcU9zj4uzzVp1Vl25aVrf3lB2B2VrJLpLZMCKDSpRbP/ee7m0aGID7cy2NVxIGlEpbS+ZjkjiYsAwFgX2sriG7eVL9inNi2X+GQGl54OQA5T+OzVhGVsFOfeWS41INTZel0tmfJZP+kMzmSxpNZBAHbc2ZG13+AyLRdy7fs990CZFAaZnv2bv/Xe7+CLEoS3WJINFa15D9fNw6TnFYas49QwCiqXZa9h9SDdlvjB458k8mW2OmC4gK4ih42t4r+UNEoo9C+9BD6zNbCQRKraN1wa6urvDvJO0kGmXrmlQ6e9+k6beMi0uHKdBLzGNySByA8jBhWvYldQ3ZG1INTY8HCf3QpPcZd9wj5jZvzjyjrsRMItEH7l/Nbch8i0AgKrZuuuIhub2ZK2HLl5mmBmHYOql+1Wvj0F8K9FIngCXuACJgUv2qmXXppv8altDvJX3CZDVEBXieB/n9/ILfhzgZH+ghetpa5jZbGFxMJMqXmU5OBP7z2vSq2ZXeV4rDUovPPegAIqZm6uqRqYZV81LppocTgd8pszcTFeAITHeYrJpAHCtMdmldffZDRAJR07Zh7n+56+/5oK28BeZfTaWzFX1CPwV6iblY4g5gaE08d8UptfVNnzsx2bnd5CvM7EyiAhxZKt10s5nF8jThAQl0a2r6ylcQCERNriXzY5f/nUt/JRrly0xX1zVk76jU/lGglxqHxAEYImdNXf3SVLppddXwxI4gsI+Z2YlEBTi6unTTm83sCiLRP+bB92pf/ZUTiASipr153q9k4avl+iPRKGsXpxqaflmJP2co0EueAZa4Ayiuuqmrx9alm74yvKrrUTP7CBEB+qb23JU1Lvs3IjEgE61rz22EAVGUWz/vt/kgOM9d7USjfJns1Zbf+6OJE1cMr6R+UaCXPAHMoAMojvHjbxtRl85eq2TXVpl9kIgA/RMMC/7dTCcRiYExs3em6rONRAJRtGX95Y/v3LN7qlxriUb5Mun85IsT35fuSFRKnyjQS82dAh1AwaUasm8bcdrurTJ9SqaRRGQQXHflQ7tIrrsIRnzUNmQ/IdNriMTgWKCVqfSqqUQCUfTEbxY929aSuSgM7XKX9hKR8mSmN9aln/xmpfSHAr3EnD3oAAqo9tVfOSHVkL3NpO+bNI6IDIy7P+bS9XkLTm9ryczcsmHuWjftJDLxMGladpq5f4pIFIj5XWdNXc1KBERW+4a5X1To57j7A0SjTJneXdeQ/XwldCVJNkvLAz4kAVAYqYaVMyy/53bJXko0Bsh1l+RfyrU0/vfhf2Wu3eIj1Yp31tTVJyWCru/KjH+fC8SkccOqur4u6e1EA1GV29C4RdKUuoamT0r2r0SkLF2Talj1WK557spy7gT/+JQaM+gABmvG4mSqoenTcvspxfmAtLlrYb4zeUpbS2ZmWy/FeTffT6gq3/CqzttkegmRKCyT3lZb37SISCDq2pobb9hvOttd33KXE5Ey435zbTr7rnLuAgV6yRPAKe4ABi7VcMv4uj0n/9Jk/2LM+PWZy/dI+kre9dq25szkXEvmpi2b5vzp6N9j7E+s+Ocp+0+SXUQkiiMI7MbahpWvJhKIuofWZ7bmWjKXdinxcnf/LhEpH2aywPQfk9LZsj1DhF/mSo0ZdAADVNuw8tXysFVmaaLRN+6+XqE+HDxtY9qaMx/e0pL5ZV+/10x5Ili5JkzPTpS0gkgUV+D23cnTb30RkUA52Nry0c25lsZ3WVfwKpf+k4iUj0C6o1zvSGcPeol5wCnuAPqvriH7brm+LlMV0Tg6lz8pt6953r7cfl+mfeCvoy5+YFemiRNXDK8Kfa3MRhCNIjM7NQz3fUfS6wkGysXm+y6/X9LbU9NXvsLC4F9lupCoRJuZxiq/9xZJ/1hubWcGPQrDBwD6IZXOLpT0bYrzY/phKH93rrlxTK4ls7D9vrntg3kxlzoJaWWqenHiCzJ7GZEYGma6IJVu+n9EAuUmt37eb9taMjNDt3Pk+nciEm0mva8c96NToJcY16wB6I/adPZKMy0hEkfij7r7dXkLTm9rzry5vbnxjkK9sjlL3CvRpIZVb5JpLpEYarY41bByBnFAOWpvmfubtpbMe8IwPMvdv+TyfUQlmsy0fOLEFcPLqc0U6CXHIXEA+qY2nb0yMC0nEi/k0vfCvN7U1tw4PtfS+Kkt6y9/vODv4U6BXmEmplecHrh/i0gMPTOZyb5be+7KGqKBctW+Yd4juZbGOUHexrv7ZyXtJCrRYtK4xMmJheXUZgr0UifAyAGAY6traPowxfkL7AxD//y+zuQZuebMO9s3Zn5UzDcLjCXulaZKiX8z00lEolTsRcGw4NvEAeVu88bMH3Mtjf/yVGfy9FB+pUsdRCU6Avd/nnjuilPKpr2krLScPegAjiFVv/Lv3bWaSBzgf5H843+1fePaNzR+/OFNc34/FO8ayrgPt5Keq4bsdTK9lkiUmOm1tfVNnyMQqATbNs3Z3d7cuCLXnDkzL3uzpP8gKhFgdlzVsOBfyqW5FOil5pziDuDI6tKrGhTYndxxLsm121037eusOqutufHzj62/as9Qvj170CvHpPpVrzVpMZGIhiCwj9Wlm95MJFBJtjTP/WFbc+aSzn35MS5d79IOolI6bpozfsqyUeXQVn7hK/1ooUAH0KuJ6RWny/y/TVYd5zi4+9OSPr1n3/5xuZbMwoc3zXmqFO0wc2bQK8BZU1efFFj4b0Qicr7JfnRUoq33X/FkrjmzONecOVXyf5LURlSGnsmqRwyvuqIc2kqBXmIscQfQm8mTs8dXKfiRpNGxDoTr5t27g/FtzZlPdrQu2FXKpoQeMINeAYYnu243s9OJRMSYjQqG250EApWsrbnx1rbmzGTl/XXu/l0iMrTMbP748beNiHo7KdBLngFOcQfwQuEJ/s0438vs7g+423ltLZn5v//t3EicimsWhozM8lbb0HS5TBcSiaiy+rp0djlxQKVr29j481xL47vCfeG4MPTPy/1ZojIkRg8fs+dtUW8kBXqpE8ASdwCHqUs3Zczs7fHsvXe5tDhX/afzci1zN0WqacYhceVsYvqLk032BSIRcaYraxtWxvTnH+Km/f5529o3NH68U2FNGPo1Lt9GVIorMH9f5NtImkrLnRwAeF5t/coz3bQkjn13V3tX3qblmjPXa93irui1j3vQy9Xp079QnVTXnSZFfmkjJFPwjdr6lWcSCcTF1pYrnm7f0Lgk19w4zkN91F3R+oC6kpgujPphcRSHJc8AM+gAnmdB8I04Hgrn7t/euWf31Ac3ZlojmxszlriXqRN8+BfMbBKRKA8mnWBmd5bDXlGg0HIbMqtzLZnz3MJXutTUc1AqCmjEiGEzo9w+CvQSc7EHHUC3VH12jknnx67j7gtyLY3vfeI3i9iDh4Krq2+6SNJHiUR5MbNzRpz67M1EAnGVWz/vt7nmzLyuP4dj5P4BuX5BVArD5G+Kcvso0EuNPegA1H31k5l/Lk59dikv6T1tLY3Ly6TF7EEvM5Om3zLOA7udSJQnM/tIbf2qi4kE4mzr1iv2tbU0fr2tJfM3+01nu2upy58kMoPgemOUm0eBXvIEOAU6AFVVdS6V2ag49dnll7Y1Z/69XNprLpa4l5nAwztMOoFIlC8LwtsnTV2ZIhKA9ND6zNZcS2ZRbsSfakLXxe76sbvzb1N/mY1KpVdNjWrzKNBLjRl0IPYmTM9ODGQfjlOfQ/eZ7c2Nd5B9FEtduulfY7llpMKYrDqosjtrpq4eSTSAHusWd7W3ZL6Ta8n8vSV0Vuj6V7k/QWD6ztz/Jqpto0AvMQ+YQQfirsr1iTj116V3trc03lVu7Q4VsMS9TKSmr3qdzD5JJCqDyVInVnV+mUgAL9R2b+Oj7S2Z/9fWMmZcqPBCl37kLv69OgY3TYlq2yjQSz86KNCBGJswLfsSk/9jbDrsviTXnPkemUexnDV19UkW+reJRGUx2aWpdNNHiARwJJfk25vnfT/XnHlTPm8TXVpDTI7MTK+Iatso0EvM3ckBEGNVgS+ULBmHvrprU1tL4zXl2n7jHvSyMCzZ9U2ZTiMSFcjs5rOnZacQCODoHrxv7sO55szsnqvafkREenVuVBtGcVjqBHAPOhBbNVNXjzSzD8alvyZrJOsoprp0U8ZMbyESlcmkEYnAv1f76q9w8B/QBz1Xtb0pn1e9u/6LiBxqwvTsxCi2iwK95NiDDsTViYmu90s6Pg59dembbS1zm8u7FyE/ryNsUv2Kc2TWRCQqm5mdGeT3cHUe0A9bNmY25loyb+2eUffb5b6fqEhVsnFRbBcFeok5e9CB+DL9U2y6GngFHITHIXFRVTN19cjAEmVzZR8Gyy5KNayaRxyA/umeUW+cpYQmufvPYh+QvNdEsVkU6CVHgQ7E0cSpKyaYKbJ3cBaUa1XbvY2Pln9HmEGPqpOqulaYqZZIxIfJV0yafks9kQD6r+3exkdzLY1vCF0XS14B/z4PjCma55VQoJea8wsfEEfJZPC+uPS1K1SFXI/EDHoU1TY0XSLpQ0QifhJh+J2XvmLVaCIBDEx7S+Y7bc2N48PQPx/LAAQU6OiFc0gcEEsmXRKHfrr7Aw9uzLSScRRDquGW8YHsK0QipkwvGTnSv04ggMFp39D48TC0S+T+bMy6fmIUG0WBXvIEcEgcEDeTpt8yTmYvi0VnrZJOjWXFU7TckTDl/10xOWgRvTPTW1Lp7MeJBDA47Rvm/odb4uVyPRibTrsfF8VmUaCXfFyQAyBuEp5/U1z66m4/IeMohlT6yRskYw8yJPmnU9Oy5xMHYHByzZd37A/1Bndtj0N/3YwCHb0wlrgDseP2t7Hpa3LEfZXTGfagR0VtOnuBmZg1hSTJzAIF+s7Ec1ecQjSAwXloY+YPnYH+xl1/qvjOejRXYFGglx4FOhC7p96nx6Kf7k+0/+pDf62cDrHEPQomTV19sknfJBKS3H9HELqZaWxyWPBtIgEM3kPrM1vdbW7l9zSaW40p0Es+LtiDDsTJ5Om3vkiyl8ajt/YIGUehBVVdXzfT2LjHwaWm/aG9yaUK+hBscMzs9al00/VEAhi89g1z/0Ou5kruo5meiWK7KNBLzLkHHYiVMNx3Xlz66qZ9ZByFVFefXWDSPxAJf7TrT/mFD23M/MGly4nHwezaVMPKGcQBGDyXrqvw/j0dxXZRoJc8AcygA3Hi5qn4dNbzZByFMql+xTky/xyRkDxvl27desU+SWpvznzTpf8kKt3MZHL7zoTzbxlDNIDBybVkfiz5oxXbQWcGHb3hkDggVgLX6THqbjUZRyGcPv0L1UGQWCuzYXGPhctX5jZm7j34z/bu3f+BuJy63Bdm9uKqMP896Y4E0ah8tQ0rX00UisitYpe5m1kk732nQC/1mGcGHYjZM28xKtCjeX3JwHGKe6kc78NXmTQ+7nFw90eesf0fO/zPO1oX7DKzDzBSnmeyV9c1PPkZIhGHXAefrmvIPliXbno/H8oUnpvaKrZv7hTo6HXUkwMgTsxjc7iVyU+trB5xinsppOqz7zVpFpGQ3Pz9j62/ak9vf9fWPPcn7r6CKB3imrr6VW8hDLEwUWZfS6V3bK5tyL5PWszv1wVi7g9XbudY4o5eOKe4A7FibrH5dN9lY8aPv20EWcdA1Z3fdIaZbiUSklw3tzfP+9XRvqTrz+E17monWAex8Bt15zedQSBikm6zSYH0jVT65LbuQh0F8MeKHS+ubVFsFwV6qRMQsAcdiBM3hXHpq5ms+rRnJ1dOj1jiPuTPS96+K9NIIqGtfw32/fMxv2jrFfuCfPBewnUQs1Get+8SiLilvadQb2hqq21ouoSIDFwoO6lyB4q2RLFZFOilxgw6gAoWhnpDpfTFTZ1kdOjUpZtuNNNUIiF56B840tL2w22+7/L7Q+mTRO15ZpqaasiuJBIxzL0sFcj+vS6d/X0qnf34+CnLRhGVfnI/s1K79lRnVS6K7aJAL/WY5x50IFZM8SryLLCK2P85fsqyUWZawAgeGrX1K18vs0VEQnL5F3IbGtf353vam+d+xuW/JnrPM6mxtmHl24lEbAfAS8z02eoRw3bWNjR9eWL6ixW0uqvIoQvs9ZXYL3dt37Zpzu4oto0CPQLjnhAA8eHyvTHr8N9Mnn7ri8q5CxOnrpgwYsSw+006nxFcfKn6phebBf9OJCTJH+r6U/gv/f8+cw/9XYroCcWlYgq+MXHqiglEIt4C2YerLP+7uobsT1IN2beJG5WOaML5t4yR+xsr9AdCJJe3d49RlHhw8EMBiBW3WBXoZjL3vf9Uru1P1TdNTyaDX3PF1xCOmcD+3Uwnxz0O7vIw9Pds3XrFvoF8f/uGeY/INJ8RddDYkk6oSgbfnzhxxXCiAUlvMOn7qfSqral09uOTp2VPIySHqgrzHzOr0Bun3CN7oCYFeomZkwMgZiK5nKqYXLq6HNtd25D9hAV2r5mdyLAdGql09mqpcs4tGAwzLWnfMO++wbxGW3PjrS79J9E8JLCTq05OZAkEDnrWzjLTZz2h7XXppv9KNWTfQVSksxuydSa7qlL756bfRbVtFIdR+LEAIE72xa3DJjulrqHpY+XS3snTsqfVpbO/CKQbGK5DZ1L9inPM/HNEQpL8obbOZEEOegs7kx90+ZPE9BAfqks3vZ8w4AXM3mzSd1MN2SdS6ezS2vNW1cYxDKn6phcn5T+s5D4G0i8j3DaUkrPvBYjXM+/+l3j23D5Ze+7Kmqi3srZh5ds94b+T6TWM1qEzeXL2+MAS35MsSTSkvCUu1aY5BTlQcsumOX9SqA8S1UO5aTUHheFITBpjpquDpOfqGppaUg1NV5XDv2GFMOH8W8bI7GeSnVGxz7/rqbbmxsgepEmBXvqfABToQKwEHTHt+PE23O6I6mE8dVNXj02ls/8RKLhLsrI+1K4chSf4l810FpGQJN24Zf3lGwr5grkNjT8I5bcS2ueZrLrK8nedPv0L1UQDxxgt9Sa7KRgePJ5KN91bycX6pPpVr63K55vN9MrKfv51d5TbR4Fe+iFCgQ7ESBBoa1z7brJXp9LZf5MWR+jfHre6dHauJztzZnoXI3TopRqaLjOz9xAJSVJboZa2H+6vnVVXyvUHQnyIiSf4sDWEAX1lZtOfK9Ybsr9KpbNXp+qbJpV7v85MLz811dC0JhH4z82sYu89P8DNfhbl9rGUrOQjhCXuQKweedlWk8e2/2b2nlT65JF7n7jt3R0ds0t6on1tuulC06prZZrKYqbSqEt/8Wx5V5bw9/x8cHt/oZa2H27bpjm7j2toujgpaybSB7NLUvXZn+U2ZFYTC/Rr5Ejny3S+zJam0tmHJf+huX5qz9j/bt6ceaYc+jB5cvb48ERdba5rJI2MTe66jBl0HO3hZgYdiJNc8+UdcY+Bmb29+tRn1008d8UppXj/VHrlO1MN2d8GZmvNNJVRWcrBkP93mR1HICSXfybXMndTMd/jwebGFkmfJtqHDcNAX5x83i3nEgkMeAyZzjKzjAL7np+ov9als79IpZv+36R09jWTJ2ePj1p7z25oStels8v9RH/UpMWy+BTnLu1ou+/y/4tyG5lBL/kTzQw6EDcu/Z9JL491EMzSyeFB66Rp2ZlbNmY2FvvtJk/LnhYm/FJzfVBmL2MUll6qIfsFSRRFktzVnmtp/MRQvFdbc+aTqXT2H/hw6lBhMvzexPSKc7a2XPE00cCgmV5jstckpOv9RKmuoen3Lv3GZA94qN9ZGPx2qIrECeffMqaqK19vZudK3uCyepNO7l65FMMyxP3bUW8iBXrJx4ixigGI34N/j8ziXaBLMllNIqENqXR2tXUlr2/bNGd7IV9/8uTs8fkTdaG5PuCmN5oslr+LDHiYhsVbZVc7LfsPJi0gys89De8byncLu8J/DKqC+00aQex7MiCNr1LidkkXEQ0UYYS91KSXSnqrBZKCUHUNWbn0uLk/5tJjkh5312Mme0xBuD205O5AXXu69vvuRGh79nQl9gR/rd5z+PawydOyp4XJ8BQPg5PNdZqbxgSmGndNMfk5CsNTFdhzIz3u/wy6gq9EvY0U6KUfJvy6CMTtqffgHjPPEIluZpqjqq45qXTTt8NQt27Z2PjTgb7WhGnZlwwL/J0uvc1Nrw8kivIBCszGFON166auHutB5zdIzHM/EG7ItWQ2DeVbbtk0L5dqWHWN5CtIwEFMM+vqswvaNmSWEQwMzZDTOJmNMyktHXx0dKCEh5ICVVV1/8lxw106brfqTsse+iNEknnQ/b0HfQ5tcZ0hP7r721vm/ibqjaRAL/2jyZMDxEy+s2tdMDxBIA5jZu9JJPSeVLrpETO7z10PSeF9nYnkLx669/IdB75uwvm3jEnu99FhMhyVDFXjgc6T7FWSv9KkGmYICiM0FaVAV1XX1032YiIsyf13bS2N15birXPNc1fWNWTfLulvScRBAn2hLr1qfVvLXA7TAyqMh/pqObSTAr3UA4U96EDsbL3/iidTDU05k6WIxgv1XPFyZvfHl4GGhd1LAZ8ThlJSCmRScPD8AD9OC5oH13RJBZ1hTaWzH5f0BqIrSd4VKri0pDnO6/1h4O1mdiL5OCgz5t85a+rqlz28ac5TRAOolAdbnV2W/1o5NJX9zyVPADPoQByZ7PtEAREfpBeOH39bwfYoT5qWnWbm/0pgu4Vuny31UsvNGzN/dNmHyMbhQ1/jhlV1Rf4gKQD94d8ul0MgKdBLPlaYQQfiqEtaQxQQZSarrj712YIUb5MnZ48PAv+eZKzc69bW3nLK9VFoSHtL5jsufZOUHD7+9Q+1DdlPEAmg/LmUV0LXlkt7KdBLP2Ao0IEYerA50ybpfiKBaLNPTpy4YvhgX8VP9K+Z2enEU5K8K3R7j3RJPjItSoy43F3bo9KeyIx+90+lpmXPJxJAuT/LWt12b+Oj5dJeCvSSjxiWuAOxFerrBAGRZjqt6uTEoMZpbbrpg5JxdVUPl90QtVOE23/1ob9a6O9xl5Ohg4a/WWCBf2/C+beMIRpAmXJ/tnN/fnE5NZkCveSDhhwAcbU/GbCsFOXg4lS6afVAvrGuvumiwCzyd84OFXd/INecicTS9sO1bWz8ucy5XuxwZqdWheEdBAIoW8u23n/Fk+XUYIrDEjPuQQdi66F7L9/h7lkigagzs4/UpbM/nzT9lnF9/Z7ahqYrFNj3iN5BAn9/lJuXa268Wu6bSdRh4196XV26iQMOgTLjrj+Fyeoby63dFOglxxJ3IM58v3+GKKAsmF4beLi1Np391Pgpy0Yd6csmTl0xIZVu+nEgu5mgHfK0X5tbP++3kW9mPvFuctXb+LdPptLZNxIIoHy4hR9q/9WH/lpu7eY01ZIPHA6JA+Ks/f5521Lppi+Z2UeIBqLOpBFmurZ6xLBrUw3Zb0raeuhX+OtMNoNIHcbV2tbSeEM5NLXtvsv/r64h+zFJnydxh41/829NTK84Z2vLFY8RDSDaXP5v7c3zyvJKWwr00g8fCnQg5vZ3VX16eFUXBTrKiknv6/VP8cKohP6P5dTetubMjXXp7Ftlei3ZOySTL0pa4t8lvZpYANHlru2erP5oubafJe4lH0EscQfi7uFNc34v97KYXQPQP6H0yc0bG39Xbu3uVP5SuT9LBg9l0vmphqabiAQQYYG9txyXtj/XfDJYasygA5Dsr2P+1d0fIRJA5XD3B9qb55blORNbW654zM0ayeILmeyq2oaVbycSQPS4eza3fu495dwHCvQSMw6JAyBp8+ZL9isIZhMJoEK47w+7/D2Sle3d4rnmzBqX/pNkvpAp+Ebd+U1nEAkgOtz9Z7mWMVeWez8o0EvNyAGAbrn1c+9x99uIBFD+XHbdlk3zcmXfkdBny/0JMnook05Q3tYSCSAaXPq/p7uq3iZdki/3vlAclnowOSfqAHjeM8H+jKQ2IhFNLt/jrn/20O8kGjjyONHGXEvmc5XQl9yGxj9LivT97SVjmlLX0LSKQACl5r/vDII3bNs0Z3cl9IYCvfQDigIdwHMeW3/Vns7O/NskPUM0osVdP97fWZXKtWQ+59IWIoIjDJT9+S57TyV1qa2l8X8lv4Xk9sYur61fdTFxAErEfVdXV3DBQ/devqNSukSBXmrGHnQAh9q66YqHXLqMSESDy58MpX/MtWT+/uFNc34vSRZY+S9dRlGErk8+eN/chyutX3v+eNxVesG99+j+eRDenqpvmkQkgKHl7n+2fOL1lfYzlwK9xIwZdAC9yDVnvufysjz9uZK4a+nO3XvObG/OfPPgP+/yxAaigxeMF2lj+4bGJZXYt46O2XvzeV1Kll/IZNVm+t748beNIBrA0HD3LZ2hnbv5vsvvr7S+UaCXfHQxgw6gd7nmxk+468tEYui5fF2+M6zLtWQWPfGbRS+4C3pry0c3u/vTRArPjxntVej/WMl93LIxs9GlxWS7F2YvG3Has18kEMAQcP2yS+G0hzZm/lCJ3aNALz0KdABHlGuZO8fdv0skhojrD6H83bnmxguOdQK3mf0PAcNBY+fa3IbGij+bINc891Mu/zUJ7+Vnguyy2nTTB4kEUDwufa+t+skLtrZcUbEfklOgl3qQcc0agKMyz7WMebe7fkwsish9v7s+91RXMtXe3HhHn74n1A8IHKTnTm1fGo/emnvo73JpL5nvJTpm2bMbsnVEAiiKj+WaM+/UusVdldxJisOSYw86gGO5JJ/rSr7VpW8Si8Jyl0t+h1uiNteS+ef+XNHyl727vyv3XUQx5mNI2ltpp7YfS/uGeY+4/Cqy/0ImjUhK3z99+heqiQZQGO7+gIde29acuTEO/aVAL/mIYw86gD7YNKcz15z5R7kvIBiF4fJfuYf1bc2N7841X97R3+9/4jeLnnUFsfhlAUdmof6lEk9tP5b25sZbXPoRI6BXE0/w4bcThiES+kfc9R0CUYFcne5+Xa76T+fFYQvRARToJcYp7gD6o62lcXk+73/LAWWDC2Oo8MJcc+Nr2jfMu28wLxT89eSb3BW74gzdXNrYtiGzLK79DzuT75e0k5HQq4vr0k0ZwlB8uQ2NW3ItmYvDMJwm9/8mIpXBXb/pClWfa2n8VKUvaT8cBXqpcQ86gH7asrHxp+4+xV2biEbfubQjlM9ta85Mbm+e9/1CvObmzZfsN7M5RDeeOi3e145t2TTnT/nQOBTtSMyaUulVUwnE0GjfMO++tpbGt1hX8CqXvte9hQllx/0Jlz6Sa3ny3Ac3ZlrjGAIK9FKPQU5xBzAA7RvmPRL89ZTz3X0F0Tg6l/86dP9Q15/yL21vbryl0K/f1jz3J2HonyfS8RK65j+0PrM17nHYsmHuWpeznPtIzL9z1tTVJxGIobP5vsvvzzVn3tkZ6gzJr3X32CyNLmcu3+euz/1lz54JuebMl6XFYVxjkWQ4lHo0ssQdwMBs3nzJfklX1tU3rVNgX5N0PFF5nru+ZrJbci2Z5mK/V/uGxo+nGppOM9llRD4Og0u/aG/J3EwgesKRqJ5n+T0zJDuDaBzKpPHDqjq/IeltRGNo9dyRfYOkG1L1TdMV2MXmfqnMTiU6UeN3WKBr2u7NPEosmEGPAJa4Axictg2Nd+4PggkuXxn3WLhreyh9Mt+ZPCXXkrmsrWVu81C9d665cVYov5IRWfm68jaLKDyv/Vcf+mve7R+JRO9M9tZUOns1kSid3IbG9bnmzFVtLY2n5V2vdfcVLj1OZEorlN8adlmqrbnx3W33NlKc96BALzHjHnQABfDQvZfvyDU3XrGvM3mGS2tiFwDXXXJ/S64lU9PenPn0lk1z/lSKZrQ3N66QJyZJvoFRWaFDLdS8OJ7afixbWjK/ZKvHkZlpaWpa9nwiEY2xmmtpvDLXnPn/7d1NjJ1VGQfw//POtBYLLaD4VSRYSu0EPwLFaUHdGKMxMYGViQtFJQZsKxriwhATWRjdGCC1FNGFhEQXyIKFGxI0UEU6UxsDiZ1OJWAMVFpDFIV+z31cUI3ESoi2dNr+fsld3Lu495z/87yLc8958144N5fJ7v5Oun8nmddJ57nu/ubhg3Nvmd264Yuzv1k3K5RXcsT95LODDhw3T22/4Y9JPj+x5vvf7hz5Sqqur2TR6TjX7n46qR8Mo9yzY9v65+bLuGambvx9kjUTk3d+tof+bqUu0JmnSc8lj+ycXr9JEsc2O73h66vW3PmJqrxPGscwlvtWTW56/87pDc8LY37YtW39tiTbktxy6ZWbl48PfU1Xf7KqPiKd46yzdVTZNDu1/sfCeHUW6Ce7V92DDpwARxeJG1as2XjLggxfSOrmVN55yk+s+69J/Syj/uHObRu2zOsaTK+/N8m9qya/9/Ea6pruurYqb9edp2rvZV9q+JwgXt2RjH16QebsRh5DJcu66idJPi6N+efoyZjbk9z+jtV3v/Hs4fBVw1h9KN0fTNXaSs6R0mvXnU7lsRrl/sM199Mnp256RiqvjQX6SecedODEeXLqpr8luSPJHSsnN187Vn1dKteeQlP4S3f/IjU8Mhod2bJr+qbHT7Ua7Jz+8oNJHkyybmLt5o+m+7pU1iZZoUNPHaPqr81u/dIfJPHqnpy6ccfE5J03Z8ht0vhPVfnYxNpN35jZuuFb0pi/dm+/YV+Snx99Jbl1WDl5/ntrGK4eOlelcnVSl0jqlbp7VKlHR9X3j43qvvl0uu1UMl8X6Pd08vAZUYHqp7Uh8HrYNb3ugSQPLF9999KFC458qjqfSeXD82yYM53+bSdT6eHh2al1T5xONZjZuu6hJA/98/3ElXe9ZzQ2d8lQWdVdl1RleTpv6sq56ZxXlRP2eKZODlR6b7p2p/Jid+9Lsq+SfV15qUfZV0MdcOUkPeqXZqeP/yP6Tlcz0+tvf/fkpvEaarE0jnnxDRdeddtZzzx2835hnCpuHe2azuNJHk9yV5KsuHzjBeNvGFub9Np01qbqA2fcLnv3oU62V9UvO/nVoSMLtjy1/YYX9Mv/x+4twBls+eq7ly4YO7Q6qdVVuSLJFVW18nX58c5zXdlW6el0pg5nNHV0x59/s2LNxiU9Glu6sIelXaMlGRst/J+/bFQHD4/Vn8eHRXtmH73+79IFOH4uvXLz8vGx0apR57KqTFTq0lRflNRFp8P8Or07qSeq8+seasvOx9Y9ourHnwU6AK9w8cU/WnTWmw+sGI0fWV49rEyyIunlSc6rqsVJL05ydlLnJ0mn91ey/+Ud2exP50An+yu1v9N7U9mdrt2VfnbU/exoGP40d3h8t3/ZAThTvGvNHW9dVOPLOnVxdS7r6lWVmuj0qkqdNZ/G2umd1bWzqx5GABAAAAUPSURBVHfUqGbnOjPjL2Vmx471L6rkiWeBDgAAcJKsuHzjBQvHFlw4GuaWJbUsQ95W3ecmWdKpJUmfU6nFSZ+X1JJOlvy3W6A6OZDOwVQOVudgkgNdOfivz5IXOr03Lz8H/vlO7Rm6944y7DmUQ3uenvrqHhUBAAAAAAAAAAAAAAAAAAAAAAAAAAAAAAAAAAAAAAAAAAAAAAAAAAAAAAAAAAAAAAAAAAAAAAAAAAAAAAAAAAAAAAAAAAAAAAAAAAAAAAAAAAAAAAAAAAAAAAAAAAAAAAAAAAAAAAAAAAAAAAAAAAAAAAAAAAAAAAAAAAAAAAAAAAAAAAAAAAAAAAAAAAAAAAAAAAAAAAAAAAAAAAAAAAAAAAAAAAAAAAAAAAAAAAAAAAAAAAAAAAAAAAAAAAAAAAAAAAAAAAAAAAAAAAAAAAAAAAAAAAAAAAAAAAAAAAAAAAAAAAAAAAAAAAAAAAAAAAAAAAAAAAAAAAAAAAAAAAAAAAAAAAAAAAAAAAAAAAAAAAAAAAAAAAAAAAAAAAAAAAAAAAAAAAAAAAAAAAAAAAAAAAAAAAAAAAAAAAAAAAAAAAAAAAAAAAAAAAAAAAAAAAAAAAAAAAAAAAAAAAAAAAAAAAAAAAAAAAAAAAAAAAAAAAAAAAAAAAAAAAAAAAAAAAAAAAAAAAAAAAAAAAAAAAAAAAAAAAAAAAAAAAAAAAAAAAAAAAAAAAAAAAAAAAAAAAAAAAAAAAAAAAAAAAAAAAAAAAAAAAAAAAAAAAAAAAAAAAAAAAAAAAAAAAAAAAAAAAAAAAAAAAAAAAAAAAAAAAAAAAAAAAAAAAAAAAAAAAAAAAAAAAAAAAAAAAAAAAAAAAAAAAAAAAAAAAAAAAAAAAAAAAAAAAAAAAAAAAAAAAAAAAAAAAAAAAAAAAAAAAAAAAAAAAAAAAAAAAAAAAAAAAAAAAAAAAAAAAAAAAAAAAAAAAAAAAAAAAAAAAAAAAAAAAAAAAAAAAAAAAAAAAAAAAAAAAAAAAAAAAAAAAAAAAAAAAAAAAAAAAAAAAAAAAAAAAAAAAAAAAAAAAAAAAAAAAAAAAAAAAAAAAAAAAAAAAAAAAAAAAAAAAAAAAAAAAAAAAAAAAAAAAAAAAAAAAAAAAAAAAAAAAAAAAAAAAAAAAAAAAAAAAAAAAAAAAAAAAAAAAAAAAAAAAAAAAAAAAAAAAAAAAAAAAAAAAAAAAAAAAAAAAAAAAAAAAAAAAAAAAAAAAAAAAAAAAAAAAAAAAAAAAAAAAAAAAAAAAAAAAAAAAAAAAAAAAAAAAAAAAAAAAAAAAAAAAAAAAAAAAAAAAAAAAAAAAAAAAAAAAAAAAAAAAAAAAAAAAAAAAAAAAAAAAAAAAAAAAAAAAAAAAAAAAAAAAAAAAAAAAAAAAAAAAAAAAAAAAAAAAAAAAAAAAAAAAAAAAAAAAAAAAAAAAAAAAAAAAAAAAAAAAAAAAAAAAAAAAAAAAAAAAAAAAAAAAAAAAAAAAAAAAAAAAAAAAAAAAAAAAAAAAAAAAAAAAAAAAAAAAAAAAAAAAAAAAAAAAAAAAAAAAAAAAAAAAAAAAAAAAAAAAAAAAAAAAAAAAAAAAAAAAAAAAAAAAAAAAAAAAAAAAAAAAAAAAAAAAAAAAAAAAAAAAAAAAAAAAAAAAAAAAAAAAAAAAAAAAAAAAAAAAAAAAAAAAAAAAAAAAAAAAAAAAAAAAAAAAAAAAAAAE6QfwDp8+nRHwCEawAAABJ0RVh0RVhJRjpPcmllbnRhdGlvbgAxhFjs7wAAAABJRU5ErkJggg==;" vertex="1" parent="1">
          <mxGeometry x="220" y="530" width="90" height="90" as="geometry" />
        </mxCell>
        <mxCell id="C8TpaTj0ahZ3OWS8mgbu-34" value="&lt;font style=&quot;font-size: 18px&quot;&gt;SIP Proxy&lt;/font&gt;" style="pointerEvents=1;shadow=0;dashed=0;html=1;strokeColor=none;fillColor=#505050;labelPosition=center;verticalLabelPosition=bottom;verticalAlign=top;outlineConnect=0;align=center;shape=mxgraph.office.communications.sip_uri_um_dial_plan;" vertex="1" parent="1">
          <mxGeometry x="775" y="280" width="93" height="84.7" as="geometry" />
        </mxCell>
        <mxCell id="C8TpaTj0ahZ3OWS8mgbu-52" value="Fixed Core Switch" style="verticalLabelPosition=bottom;html=1;fillColor=#A153A0;strokeColor=#ffffff;verticalAlign=top;align=center;points=[[0,0.5,0],[0.125,0.25,0],[0.25,0,0],[0.5,0,0],[0.75,0,0],[0.875,0.25,0],[1,0.5,0],[0.875,0.75,0],[0.75,1,0],[0.5,1,0],[0.125,0.75,0]];pointerEvents=1;shape=mxgraph.cisco_safe.compositeIcon;bgIcon=mxgraph.cisco_safe.design.blank_device;resIcon=mxgraph.cisco_safe.design.l3_switch;" vertex="1" parent="1">
          <mxGeometry x="200" y="640" width="91" height="78" as="geometry" />
        </mxCell>
        <mxCell id="C8TpaTj0ahZ3OWS8mgbu-53" value="&lt;font style=&quot;font-size: 36px&quot;&gt;Public Internet&lt;/font&gt;" style="text;html=1;resizable=0;autosize=1;align=center;verticalAlign=middle;points=[];fillColor=none;strokeColor=none;rounded=0;" vertex="1" parent="1">
          <mxGeometry x="140" y="20" width="250" height="30" as="geometry" />
        </mxCell>
        <mxCell id="C8TpaTj0ahZ3OWS8mgbu-55" value="&lt;font style=&quot;font-size: 18px&quot;&gt;Call Center&lt;/font&gt;" style="shape=image;html=1;verticalAlign=top;verticalLabelPosition=bottom;labelBackgroundColor=#ffffff;imageAspect=0;aspect=fixed;image=https://cdn4.iconfinder.com/data/icons/business-e-commerce-and-marketing/64/14-Online_Support_-_Call_Center-128.png" vertex="1" parent="1">
          <mxGeometry x="665" y="110" width="78" height="78" as="geometry" />
        </mxCell>
        <mxCell id="C8TpaTj0ahZ3OWS8mgbu-67" value="&lt;font style=&quot;font-size: 36px&quot;&gt;Trusted - CPaaS SIP Apps&lt;/font&gt;" style="text;html=1;resizable=0;autosize=1;align=center;verticalAlign=middle;points=[];fillColor=none;strokeColor=none;rounded=0;" vertex="1" parent="1">
          <mxGeometry x="665" y="20" width="440" height="30" as="geometry" />
        </mxCell>
        <mxCell id="C8TpaTj0ahZ3OWS8mgbu-69" value="&lt;font style=&quot;font-size: 36px&quot;&gt;Maxis Voice Networks&lt;/font&gt;" style="text;html=1;resizable=0;autosize=1;align=center;verticalAlign=middle;points=[];fillColor=none;strokeColor=none;rounded=0;" vertex="1" parent="1">
          <mxGeometry x="150" y="760" width="370" height="30" as="geometry" />
        </mxCell>
        <mxCell id="C8TpaTj0ahZ3OWS8mgbu-71" value="Maxis SBC" style="fontColor=#0066CC;verticalAlign=top;verticalLabelPosition=bottom;labelPosition=center;align=center;html=1;outlineConnect=0;fillColor=#CCCCCC;strokeColor=#6881B3;gradientColor=none;gradientDirection=north;strokeWidth=2;shape=mxgraph.networks.load_balancer;" vertex="1" parent="1">
          <mxGeometry x="430" y="664" width="100" height="30" as="geometry" />
        </mxCell>
        <mxCell id="C8TpaTj0ahZ3OWS8mgbu-72" value="" style="shape=flexArrow;endArrow=classic;startArrow=classic;html=1;entryX=0.5;entryY=1;entryDx=0;entryDy=0;fillColor=#CCFFCC;exitX=0.5;exitY=0;exitDx=0;exitDy=0;exitPerimeter=0;width=12;endSize=6.2;" edge="1" parent="1" source="C8TpaTj0ahZ3OWS8mgbu-71" target="C8TpaTj0ahZ3OWS8mgbu-12">
          <mxGeometry width="50" height="50" relative="1" as="geometry">
            <mxPoint x="255.5" y="650" as="sourcePoint" />
            <mxPoint x="602.3999999999999" y="461.68000000000006" as="targetPoint" />
          </mxGeometry>
        </mxCell>
        <mxCell id="C8TpaTj0ahZ3OWS8mgbu-73" value="PSTN SIP Trunk" style="edgeLabel;html=1;align=center;verticalAlign=middle;resizable=0;points=[];" vertex="1" connectable="0" parent="C8TpaTj0ahZ3OWS8mgbu-72">
          <mxGeometry x="-0.1637" y="-4" relative="1" as="geometry">
            <mxPoint as="offset" />
          </mxGeometry>
        </mxCell>
        <mxCell id="C8TpaTj0ahZ3OWS8mgbu-76" value="&lt;font style=&quot;font-size: 18px&quot;&gt;APP #1&lt;/font&gt;" style="verticalLabelPosition=bottom;aspect=fixed;html=1;verticalAlign=top;strokeColor=none;align=center;outlineConnect=0;shape=mxgraph.citrix.pbx_server;fillColor=#0066CC;" vertex="1" parent="1">
          <mxGeometry x="920" y="450" width="65" height="85" as="geometry" />
        </mxCell>
        <mxCell id="C8TpaTj0ahZ3OWS8mgbu-77" value="&lt;font style=&quot;font-size: 36px&quot;&gt;Untrusted - Maxis SIP Apps&lt;/font&gt;" style="text;html=1;resizable=0;autosize=1;align=center;verticalAlign=middle;points=[];fillColor=none;strokeColor=none;rounded=0;" vertex="1" parent="1">
          <mxGeometry x="640" y="750" width="460" height="30" as="geometry" />
        </mxCell>
        <mxCell id="C8TpaTj0ahZ3OWS8mgbu-78" value="&lt;font style=&quot;font-size: 18px&quot;&gt;APP #2&lt;/font&gt;" style="verticalLabelPosition=bottom;aspect=fixed;html=1;verticalAlign=top;strokeColor=none;align=center;outlineConnect=0;shape=mxgraph.citrix.pbx_server;fillColor=#0066CC;" vertex="1" parent="1">
          <mxGeometry x="930" y="630" width="65" height="85" as="geometry" />
        </mxCell>
        <mxCell id="C8TpaTj0ahZ3OWS8mgbu-79" value="&lt;font style=&quot;font-size: 18px&quot;&gt;APP #3&lt;/font&gt;" style="verticalLabelPosition=bottom;aspect=fixed;html=1;verticalAlign=top;strokeColor=none;align=center;outlineConnect=0;shape=mxgraph.citrix.pbx_server;fillColor=#0066CC;" vertex="1" parent="1">
          <mxGeometry x="710" y="630" width="65" height="85" as="geometry" />
        </mxCell>
        <mxCell id="C8TpaTj0ahZ3OWS8mgbu-80" value="&lt;font style=&quot;font-size: 18px&quot;&gt;VPN&lt;/font&gt;" style="points=[];aspect=fixed;html=1;align=center;shadow=0;dashed=0;image;image=img/lib/allied_telesis/security/Router_VPN.svg;fillColor=#0066CC;flipH=1;" vertex="1" parent="1">
          <mxGeometry x="670" y="420" width="95.8" height="67.99" as="geometry" />
        </mxCell>
        <mxCell id="C8TpaTj0ahZ3OWS8mgbu-82" value="" style="points=[];aspect=fixed;html=1;align=center;shadow=0;dashed=0;image;image=img/lib/allied_telesis/switch/Switch_24_port_L2.svg;fillColor=#0066CC;" vertex="1" parent="1">
          <mxGeometry x="650" y="330" width="90.46" height="62.01" as="geometry" />
        </mxCell>
        <mxCell id="C8TpaTj0ahZ3OWS8mgbu-86" value="&lt;b&gt;SBC Fonctionnalities:&lt;br&gt;&lt;/b&gt;&lt;div style=&quot;text-align: left&quot;&gt;&lt;span&gt;Traffic Filtering&lt;/span&gt;&lt;/div&gt;&lt;div style=&quot;text-align: left&quot;&gt;&lt;span&gt;Inbound routing&lt;/span&gt;&lt;/div&gt;&lt;div style=&quot;text-align: left&quot;&gt;&lt;span&gt;outbound Routing&lt;/span&gt;&lt;/div&gt;&lt;div style=&quot;text-align: left&quot;&gt;&lt;span&gt;Traffic Blocking&lt;/span&gt;&lt;/div&gt;" style="text;html=1;resizable=0;autosize=1;align=center;verticalAlign=middle;points=[];fillColor=none;strokeColor=none;rounded=0;" vertex="1" parent="1">
          <mxGeometry x="882.5" y="280" width="140" height="80" as="geometry" />
        </mxCell>
      </root>
    </mxGraphModel>
  </diagram>
</mxfile>
